G04 EAGLE Gerber RS-274X export*
G75*
%MOMM*%
%FSLAX34Y34*%
%LPD*%
%INBottom Copper*%
%IPPOS*%
%AMOC8*
5,1,8,0,0,1.08239X$1,22.5*%
G01*
%ADD10R,1.040000X1.040000*%
%ADD11C,1.040000*%
%ADD12C,0.600000*%
%ADD13C,2.159000*%
%ADD14C,0.500000*%
%ADD15C,0.500000*%
%ADD16C,0.600000*%
%ADD17C,0.200000*%

G36*
X218511Y29764D02*
X218511Y29764D01*
X218518Y29765D01*
X218525Y29765D01*
X218729Y29788D01*
X242955Y34263D01*
X242961Y34265D01*
X242968Y34265D01*
X243167Y34318D01*
X266483Y42273D01*
X266489Y42276D01*
X266496Y42277D01*
X266684Y42358D01*
X288594Y53623D01*
X288600Y53627D01*
X288606Y53629D01*
X288781Y53737D01*
X308817Y68071D01*
X308822Y68076D01*
X308828Y68080D01*
X308985Y68211D01*
X319041Y77906D01*
X319138Y78024D01*
X319238Y78140D01*
X319247Y78157D01*
X319260Y78173D01*
X319327Y78310D01*
X319399Y78446D01*
X319404Y78465D01*
X319413Y78483D01*
X319447Y78632D01*
X319485Y78780D01*
X319487Y78806D01*
X319490Y78820D01*
X319490Y78850D01*
X319499Y78985D01*
X319499Y319015D01*
X319482Y319166D01*
X319468Y319319D01*
X319462Y319338D01*
X319459Y319358D01*
X319407Y319502D01*
X319359Y319647D01*
X319349Y319664D01*
X319342Y319683D01*
X319258Y319812D01*
X319178Y319942D01*
X319161Y319961D01*
X319153Y319973D01*
X319131Y319994D01*
X319041Y320094D01*
X308985Y329789D01*
X308980Y329793D01*
X308976Y329798D01*
X308817Y329929D01*
X288781Y344263D01*
X288775Y344266D01*
X288770Y344271D01*
X288594Y344377D01*
X266684Y355642D01*
X266678Y355644D01*
X266672Y355648D01*
X266483Y355727D01*
X243167Y363682D01*
X243160Y363683D01*
X243154Y363686D01*
X242955Y363737D01*
X218729Y368212D01*
X218722Y368212D01*
X218715Y368214D01*
X218511Y368236D01*
X193892Y369136D01*
X193885Y369135D01*
X193878Y369136D01*
X193673Y369128D01*
X169185Y366433D01*
X169178Y366432D01*
X169171Y366432D01*
X168970Y366393D01*
X145135Y360162D01*
X145128Y360160D01*
X145121Y360159D01*
X144928Y360092D01*
X122254Y350456D01*
X122248Y350453D01*
X122241Y350451D01*
X122059Y350356D01*
X101030Y337522D01*
X101025Y337518D01*
X101019Y337515D01*
X100852Y337395D01*
X81916Y321636D01*
X81911Y321631D01*
X81905Y321627D01*
X81758Y321484D01*
X65318Y303136D01*
X65314Y303130D01*
X65309Y303126D01*
X65185Y302963D01*
X51591Y282417D01*
X51588Y282410D01*
X51584Y282405D01*
X51484Y282226D01*
X41027Y259919D01*
X41025Y259913D01*
X41021Y259907D01*
X40949Y259715D01*
X33944Y236432D01*
X33930Y236352D01*
X33906Y236274D01*
X33900Y236182D01*
X33884Y236092D01*
X33888Y236011D01*
X33882Y235929D01*
X33897Y235838D01*
X33902Y235746D01*
X33925Y235668D01*
X33938Y235588D01*
X33974Y235503D01*
X34000Y235415D01*
X34040Y235344D01*
X34071Y235269D01*
X34125Y235194D01*
X34171Y235114D01*
X34226Y235054D01*
X34273Y234989D01*
X34343Y234928D01*
X34406Y234860D01*
X34473Y234815D01*
X34534Y234762D01*
X34616Y234719D01*
X34693Y234668D01*
X34769Y234639D01*
X34841Y234601D01*
X34930Y234578D01*
X35016Y234546D01*
X35097Y234535D01*
X35175Y234515D01*
X35338Y234504D01*
X35359Y234501D01*
X35367Y234502D01*
X35380Y234501D01*
X52864Y234501D01*
X55501Y231864D01*
X55501Y228136D01*
X52864Y225499D01*
X35136Y225499D01*
X34748Y225887D01*
X34614Y225993D01*
X34486Y226096D01*
X34482Y226098D01*
X34477Y226101D01*
X34323Y226174D01*
X34174Y226245D01*
X34169Y226246D01*
X34164Y226248D01*
X33999Y226283D01*
X33836Y226318D01*
X33831Y226318D01*
X33826Y226319D01*
X33658Y226315D01*
X33491Y226313D01*
X33486Y226311D01*
X33480Y226311D01*
X33317Y226269D01*
X33156Y226228D01*
X33151Y226226D01*
X33146Y226224D01*
X32998Y226146D01*
X32849Y226069D01*
X32845Y226065D01*
X32840Y226063D01*
X32715Y225954D01*
X32586Y225843D01*
X32583Y225839D01*
X32579Y225836D01*
X32481Y225699D01*
X32383Y225564D01*
X32381Y225559D01*
X32378Y225555D01*
X32313Y225399D01*
X32249Y225245D01*
X32247Y225239D01*
X32246Y225235D01*
X32244Y225223D01*
X32205Y225045D01*
X30906Y216218D01*
X30902Y216074D01*
X30892Y215929D01*
X30896Y215901D01*
X30895Y215873D01*
X30924Y215731D01*
X30948Y215588D01*
X30959Y215562D01*
X30964Y215534D01*
X31025Y215402D01*
X31080Y215269D01*
X31097Y215246D01*
X31109Y215220D01*
X31198Y215106D01*
X31283Y214989D01*
X31304Y214970D01*
X31322Y214947D01*
X31434Y214857D01*
X31544Y214762D01*
X31569Y214749D01*
X31591Y214731D01*
X31721Y214669D01*
X31850Y214601D01*
X31877Y214594D01*
X31903Y214582D01*
X32044Y214551D01*
X32185Y214515D01*
X32222Y214512D01*
X32241Y214508D01*
X32274Y214509D01*
X32389Y214501D01*
X49864Y214501D01*
X52501Y211864D01*
X52501Y208136D01*
X49864Y205499D01*
X31700Y205499D01*
X31665Y205495D01*
X31630Y205498D01*
X31494Y205475D01*
X31357Y205459D01*
X31323Y205447D01*
X31288Y205442D01*
X31161Y205389D01*
X31032Y205342D01*
X31002Y205323D01*
X30969Y205309D01*
X30857Y205228D01*
X30742Y205153D01*
X30718Y205127D01*
X30689Y205107D01*
X30598Y205003D01*
X30503Y204903D01*
X30485Y204872D01*
X30462Y204846D01*
X30398Y204723D01*
X30328Y204605D01*
X30318Y204571D01*
X30301Y204539D01*
X30267Y204406D01*
X30226Y204274D01*
X30224Y204239D01*
X30215Y204205D01*
X30201Y204000D01*
X30201Y196000D01*
X30205Y195965D01*
X30203Y195929D01*
X30225Y195793D01*
X30241Y195657D01*
X30253Y195623D01*
X30259Y195588D01*
X30311Y195461D01*
X30358Y195331D01*
X30378Y195302D01*
X30391Y195269D01*
X30472Y195157D01*
X30547Y195042D01*
X30573Y195017D01*
X30593Y194989D01*
X30698Y194898D01*
X30797Y194803D01*
X30828Y194785D01*
X30855Y194762D01*
X30977Y194698D01*
X31095Y194628D01*
X31129Y194618D01*
X31161Y194601D01*
X31294Y194567D01*
X31426Y194526D01*
X31461Y194524D01*
X31495Y194515D01*
X31700Y194501D01*
X49864Y194501D01*
X52501Y191864D01*
X52501Y188136D01*
X49864Y185499D01*
X32095Y185499D01*
X31951Y185483D01*
X31807Y185471D01*
X31780Y185463D01*
X31751Y185459D01*
X31615Y185410D01*
X31478Y185366D01*
X31453Y185352D01*
X31426Y185342D01*
X31305Y185263D01*
X31181Y185189D01*
X31160Y185169D01*
X31137Y185153D01*
X31037Y185049D01*
X30933Y184948D01*
X30918Y184924D01*
X30898Y184903D01*
X30825Y184778D01*
X30747Y184656D01*
X30737Y184629D01*
X30723Y184605D01*
X30680Y184466D01*
X30632Y184330D01*
X30629Y184302D01*
X30621Y184274D01*
X30611Y184130D01*
X30596Y183986D01*
X30599Y183949D01*
X30597Y183929D01*
X30603Y183897D01*
X30612Y183782D01*
X31820Y175570D01*
X31846Y175474D01*
X31862Y175378D01*
X31888Y175315D01*
X31906Y175246D01*
X31908Y175241D01*
X31910Y175236D01*
X31958Y175146D01*
X31994Y175059D01*
X32033Y175005D01*
X32067Y174940D01*
X32071Y174936D01*
X32073Y174932D01*
X32142Y174853D01*
X32196Y174778D01*
X32245Y174736D01*
X32294Y174680D01*
X32299Y174677D01*
X32302Y174673D01*
X32389Y174611D01*
X32458Y174552D01*
X32513Y174523D01*
X32575Y174478D01*
X32580Y174476D01*
X32584Y174473D01*
X32685Y174432D01*
X32764Y174391D01*
X32823Y174376D01*
X32895Y174346D01*
X32900Y174345D01*
X32905Y174343D01*
X33014Y174326D01*
X33098Y174305D01*
X33190Y174298D01*
X33236Y174291D01*
X33241Y174291D01*
X33246Y174290D01*
X33274Y174293D01*
X33303Y174291D01*
X33305Y174291D01*
X33418Y174304D01*
X33581Y174315D01*
X33586Y174317D01*
X33591Y174317D01*
X33624Y174328D01*
X33648Y174330D01*
X33763Y174372D01*
X33911Y174418D01*
X33916Y174421D01*
X33921Y174422D01*
X33948Y174439D01*
X33973Y174448D01*
X34054Y174501D01*
X51864Y174501D01*
X54501Y171864D01*
X54501Y168136D01*
X51864Y165499D01*
X35038Y165499D01*
X34895Y165483D01*
X34750Y165471D01*
X34723Y165463D01*
X34695Y165459D01*
X34559Y165410D01*
X34421Y165366D01*
X34396Y165352D01*
X34370Y165342D01*
X34248Y165263D01*
X34124Y165189D01*
X34104Y165169D01*
X34080Y165153D01*
X33980Y165048D01*
X33876Y164948D01*
X33861Y164924D01*
X33841Y164903D01*
X33768Y164778D01*
X33690Y164656D01*
X33681Y164629D01*
X33666Y164605D01*
X33624Y164467D01*
X33576Y164330D01*
X33573Y164302D01*
X33564Y164274D01*
X33554Y164130D01*
X33539Y163986D01*
X33542Y163949D01*
X33541Y163929D01*
X33546Y163897D01*
X33555Y163782D01*
X33804Y162090D01*
X33806Y162084D01*
X33806Y162077D01*
X33848Y161891D01*
X33849Y161885D01*
X33850Y161883D01*
X33851Y161877D01*
X36057Y154546D01*
X36080Y154492D01*
X36095Y154435D01*
X36149Y154334D01*
X36194Y154229D01*
X36229Y154182D01*
X36256Y154130D01*
X36332Y154043D01*
X36400Y153951D01*
X36445Y153913D01*
X36484Y153869D01*
X36577Y153802D01*
X36665Y153728D01*
X36717Y153702D01*
X36764Y153667D01*
X36871Y153623D01*
X36973Y153572D01*
X37030Y153558D01*
X37084Y153535D01*
X37198Y153517D01*
X37309Y153490D01*
X37367Y153490D01*
X37425Y153480D01*
X37540Y153488D01*
X37655Y153487D01*
X37712Y153500D01*
X37770Y153505D01*
X37880Y153539D01*
X37992Y153564D01*
X38044Y153590D01*
X38100Y153607D01*
X38199Y153666D01*
X38302Y153716D01*
X38348Y153753D01*
X38398Y153783D01*
X38553Y153918D01*
X39136Y154501D01*
X56864Y154501D01*
X59501Y151864D01*
X59501Y148136D01*
X56864Y145499D01*
X40795Y145499D01*
X40715Y145490D01*
X40634Y145490D01*
X40544Y145470D01*
X40452Y145459D01*
X40376Y145432D01*
X40296Y145414D01*
X40214Y145373D01*
X40127Y145342D01*
X40059Y145298D01*
X39986Y145262D01*
X39914Y145203D01*
X39837Y145153D01*
X39781Y145094D01*
X39718Y145043D01*
X39662Y144970D01*
X39599Y144903D01*
X39557Y144833D01*
X39508Y144768D01*
X39470Y144684D01*
X39424Y144605D01*
X39400Y144527D01*
X39366Y144453D01*
X39349Y144363D01*
X39321Y144274D01*
X39316Y144193D01*
X39300Y144114D01*
X39304Y144022D01*
X39298Y143929D01*
X39311Y143849D01*
X39314Y143768D01*
X39350Y143609D01*
X39354Y143588D01*
X39357Y143581D01*
X39360Y143568D01*
X40949Y138285D01*
X40952Y138279D01*
X40953Y138272D01*
X41027Y138081D01*
X43213Y133419D01*
X43277Y133315D01*
X43334Y133207D01*
X43368Y133169D01*
X43395Y133125D01*
X43481Y133039D01*
X43561Y132947D01*
X43603Y132917D01*
X43639Y132880D01*
X43743Y132816D01*
X43842Y132745D01*
X43889Y132725D01*
X43933Y132698D01*
X44049Y132659D01*
X44162Y132613D01*
X44212Y132605D01*
X44261Y132588D01*
X44382Y132577D01*
X44503Y132558D01*
X44554Y132561D01*
X44605Y132557D01*
X44726Y132573D01*
X44848Y132582D01*
X44897Y132597D01*
X44947Y132604D01*
X45061Y132649D01*
X45178Y132685D01*
X45222Y132711D01*
X45270Y132729D01*
X45370Y132798D01*
X45476Y132860D01*
X45530Y132908D01*
X45555Y132925D01*
X45576Y132948D01*
X45630Y132995D01*
X47136Y134501D01*
X64864Y134501D01*
X67501Y131864D01*
X67501Y128136D01*
X64864Y125499D01*
X49284Y125499D01*
X49267Y125497D01*
X49249Y125499D01*
X49095Y125477D01*
X48940Y125459D01*
X48924Y125453D01*
X48907Y125451D01*
X48762Y125395D01*
X48615Y125342D01*
X48601Y125332D01*
X48584Y125326D01*
X48456Y125238D01*
X48326Y125153D01*
X48314Y125140D01*
X48299Y125131D01*
X48194Y125016D01*
X48087Y124903D01*
X48078Y124888D01*
X48066Y124875D01*
X47991Y124739D01*
X47912Y124605D01*
X47907Y124588D01*
X47898Y124573D01*
X47856Y124423D01*
X47810Y124274D01*
X47809Y124257D01*
X47804Y124240D01*
X47797Y124084D01*
X47786Y123929D01*
X47789Y123912D01*
X47788Y123895D01*
X47817Y123741D01*
X47842Y123588D01*
X47849Y123572D01*
X47852Y123555D01*
X47926Y123364D01*
X51484Y115774D01*
X51488Y115768D01*
X51490Y115762D01*
X51591Y115583D01*
X65185Y95037D01*
X65189Y95032D01*
X65192Y95026D01*
X65318Y94864D01*
X81758Y76516D01*
X81764Y76511D01*
X81768Y76506D01*
X81916Y76364D01*
X100852Y60605D01*
X100858Y60601D01*
X100863Y60596D01*
X101030Y60478D01*
X104400Y58421D01*
X104491Y58379D01*
X104576Y58329D01*
X104647Y58307D01*
X104714Y58276D01*
X104812Y58256D01*
X104907Y58227D01*
X104980Y58222D01*
X105053Y58207D01*
X105152Y58210D01*
X105252Y58203D01*
X105325Y58215D01*
X105398Y58217D01*
X105495Y58243D01*
X105593Y58259D01*
X105661Y58287D01*
X105732Y58307D01*
X105820Y58354D01*
X105912Y58392D01*
X105972Y58435D01*
X106037Y58470D01*
X106112Y58536D01*
X106193Y58594D01*
X106241Y58650D01*
X106296Y58699D01*
X106354Y58780D01*
X106419Y58855D01*
X106454Y58921D01*
X106496Y58981D01*
X106534Y59073D01*
X106580Y59161D01*
X106598Y59233D01*
X106626Y59301D01*
X106641Y59400D01*
X106666Y59496D01*
X106674Y59610D01*
X106679Y59643D01*
X106678Y59662D01*
X106680Y59701D01*
X106680Y59991D01*
X106677Y60019D01*
X106679Y60047D01*
X106658Y60251D01*
X106425Y61572D01*
X106496Y61707D01*
X106574Y61852D01*
X106576Y61860D01*
X106580Y61868D01*
X106621Y62027D01*
X106664Y62185D01*
X106664Y62194D01*
X106666Y62203D01*
X106678Y62378D01*
X107628Y63327D01*
X107645Y63349D01*
X107667Y63368D01*
X107796Y63527D01*
X110657Y67614D01*
X110658Y67615D01*
X110998Y68101D01*
X111002Y68108D01*
X111008Y68115D01*
X111084Y68261D01*
X111162Y68405D01*
X111164Y68413D01*
X111169Y68421D01*
X111210Y68581D01*
X111252Y68738D01*
X111253Y68747D01*
X111255Y68756D01*
X111267Y68931D01*
X112216Y69880D01*
X112234Y69902D01*
X112255Y69921D01*
X112384Y70080D01*
X115587Y74654D01*
X115591Y74662D01*
X115596Y74668D01*
X115673Y74814D01*
X115751Y74958D01*
X115753Y74966D01*
X115757Y74974D01*
X115799Y75134D01*
X115841Y75292D01*
X115841Y75300D01*
X115844Y75309D01*
X115856Y75484D01*
X116805Y76433D01*
X116822Y76456D01*
X116844Y76474D01*
X116973Y76634D01*
X117742Y77732D01*
X117888Y77778D01*
X118045Y77825D01*
X118053Y77829D01*
X118061Y77832D01*
X118203Y77916D01*
X118345Y77997D01*
X118351Y78003D01*
X118359Y78007D01*
X118491Y78123D01*
X119834Y78123D01*
X119862Y78126D01*
X119890Y78124D01*
X120094Y78145D01*
X121415Y78378D01*
X121550Y78307D01*
X121694Y78230D01*
X121703Y78227D01*
X121711Y78223D01*
X121870Y78182D01*
X122028Y78139D01*
X122037Y78139D01*
X122045Y78137D01*
X122221Y78125D01*
X123170Y77176D01*
X123192Y77158D01*
X123210Y77136D01*
X123370Y77008D01*
X124469Y76238D01*
X124514Y76092D01*
X124561Y75935D01*
X124565Y75928D01*
X124568Y75919D01*
X124652Y75777D01*
X124733Y75635D01*
X124739Y75629D01*
X124744Y75621D01*
X124859Y75489D01*
X124859Y74147D01*
X124862Y74119D01*
X124860Y74090D01*
X124882Y73886D01*
X125115Y72565D01*
X125044Y72430D01*
X124966Y72286D01*
X124964Y72277D01*
X124960Y72270D01*
X124918Y72110D01*
X124876Y71952D01*
X124875Y71943D01*
X124873Y71935D01*
X124861Y71760D01*
X123912Y70811D01*
X123894Y70788D01*
X123873Y70770D01*
X123744Y70610D01*
X120882Y66523D01*
X120542Y66037D01*
X120537Y66029D01*
X120532Y66023D01*
X120455Y65877D01*
X120377Y65733D01*
X120375Y65724D01*
X120371Y65716D01*
X120330Y65557D01*
X120287Y65399D01*
X120287Y65390D01*
X120285Y65382D01*
X120273Y65206D01*
X119323Y64257D01*
X119306Y64235D01*
X119284Y64217D01*
X119155Y64057D01*
X115953Y59484D01*
X115949Y59476D01*
X115943Y59469D01*
X115866Y59324D01*
X115789Y59180D01*
X115786Y59171D01*
X115782Y59163D01*
X115741Y59003D01*
X115698Y58846D01*
X115698Y58837D01*
X115696Y58828D01*
X115684Y58653D01*
X114735Y57704D01*
X114717Y57682D01*
X114696Y57663D01*
X114567Y57504D01*
X113797Y56405D01*
X113651Y56359D01*
X113494Y56313D01*
X113487Y56308D01*
X113478Y56306D01*
X113337Y56222D01*
X113195Y56141D01*
X113188Y56135D01*
X113181Y56130D01*
X113026Y55995D01*
X112610Y55580D01*
X112586Y55548D01*
X112555Y55522D01*
X112478Y55413D01*
X112396Y55309D01*
X112379Y55272D01*
X112355Y55240D01*
X112306Y55116D01*
X112249Y54996D01*
X112241Y54956D01*
X112226Y54919D01*
X112205Y54788D01*
X112178Y54657D01*
X112179Y54617D01*
X112172Y54578D01*
X112183Y54445D01*
X112186Y54312D01*
X112196Y54273D01*
X112199Y54233D01*
X112239Y54106D01*
X112273Y53977D01*
X112292Y53942D01*
X112304Y53903D01*
X112372Y53789D01*
X112434Y53672D01*
X112461Y53641D01*
X112481Y53607D01*
X112574Y53511D01*
X112662Y53411D01*
X112694Y53387D01*
X112722Y53359D01*
X112890Y53240D01*
X122059Y47644D01*
X122066Y47641D01*
X122071Y47637D01*
X122254Y47544D01*
X144928Y37908D01*
X144934Y37906D01*
X144940Y37903D01*
X145135Y37838D01*
X168970Y31607D01*
X168977Y31606D01*
X168983Y31603D01*
X169185Y31567D01*
X193673Y28872D01*
X193680Y28872D01*
X193687Y28871D01*
X193892Y28864D01*
X218511Y29764D01*
G37*
%LPC*%
G36*
X144636Y255399D02*
X144636Y255399D01*
X141999Y258036D01*
X141999Y258122D01*
X141983Y258260D01*
X141973Y258399D01*
X141963Y258432D01*
X141959Y258465D01*
X141912Y258596D01*
X141871Y258729D01*
X141853Y258759D01*
X141842Y258790D01*
X141766Y258907D01*
X141695Y259027D01*
X141665Y259061D01*
X141653Y259080D01*
X141629Y259103D01*
X141560Y259182D01*
X140499Y260243D01*
X140499Y325573D01*
X140485Y325696D01*
X140479Y325820D01*
X140465Y325867D01*
X140459Y325916D01*
X140417Y326033D01*
X140383Y326152D01*
X140359Y326195D01*
X140342Y326241D01*
X140274Y326345D01*
X140213Y326453D01*
X140180Y326490D01*
X140153Y326531D01*
X140063Y326616D01*
X139979Y326708D01*
X139939Y326735D01*
X139903Y326769D01*
X139796Y326832D01*
X139693Y326902D01*
X139647Y326920D01*
X139605Y326944D01*
X139486Y326981D01*
X139370Y327025D01*
X139322Y327032D01*
X139274Y327047D01*
X139151Y327055D01*
X139028Y327072D01*
X138979Y327067D01*
X138929Y327070D01*
X138807Y327050D01*
X138684Y327038D01*
X138637Y327022D01*
X138588Y327014D01*
X138474Y326967D01*
X138356Y326927D01*
X138314Y326900D01*
X138269Y326882D01*
X138168Y326809D01*
X138063Y326743D01*
X138013Y326697D01*
X137989Y326679D01*
X137968Y326656D01*
X137912Y326604D01*
X122956Y310836D01*
X122885Y310741D01*
X122806Y310650D01*
X122781Y310603D01*
X122774Y310593D01*
X121850Y309669D01*
X121841Y309658D01*
X121822Y309641D01*
X121119Y308899D01*
X120097Y308899D01*
X120083Y308898D01*
X120057Y308899D01*
X118736Y308864D01*
X118653Y308885D01*
X118578Y308890D01*
X118547Y308896D01*
X118518Y308895D01*
X118449Y308899D01*
X98057Y308899D01*
X97919Y308883D01*
X97779Y308873D01*
X97747Y308863D01*
X97713Y308859D01*
X97583Y308812D01*
X97449Y308771D01*
X97420Y308753D01*
X97388Y308742D01*
X97271Y308666D01*
X97151Y308595D01*
X97117Y308565D01*
X97099Y308553D01*
X97075Y308529D01*
X96997Y308460D01*
X90732Y302195D01*
X90645Y302086D01*
X90554Y301981D01*
X90538Y301951D01*
X90517Y301924D01*
X90458Y301798D01*
X90393Y301675D01*
X90385Y301642D01*
X90370Y301611D01*
X90342Y301475D01*
X90307Y301340D01*
X90304Y301295D01*
X90299Y301273D01*
X90300Y301239D01*
X90293Y301135D01*
X90293Y297818D01*
X87656Y295181D01*
X83923Y295181D01*
X83820Y295255D01*
X83712Y295341D01*
X83680Y295356D01*
X83651Y295376D01*
X83523Y295429D01*
X83399Y295487D01*
X83364Y295495D01*
X83331Y295508D01*
X83195Y295530D01*
X83061Y295559D01*
X83025Y295558D01*
X82990Y295564D01*
X82853Y295554D01*
X82715Y295551D01*
X82681Y295542D01*
X82645Y295539D01*
X82514Y295498D01*
X82380Y295464D01*
X82349Y295447D01*
X82315Y295436D01*
X82197Y295367D01*
X82075Y295302D01*
X82048Y295279D01*
X82017Y295261D01*
X81863Y295126D01*
X80040Y293303D01*
X79953Y293194D01*
X79862Y293089D01*
X79846Y293059D01*
X79825Y293032D01*
X79766Y292906D01*
X79701Y292783D01*
X79693Y292750D01*
X79678Y292719D01*
X79650Y292583D01*
X79615Y292448D01*
X79612Y292403D01*
X79607Y292381D01*
X79608Y292347D01*
X79601Y292243D01*
X79601Y290036D01*
X76964Y287399D01*
X72831Y287399D01*
X72724Y287422D01*
X72688Y287421D01*
X72653Y287427D01*
X72516Y287417D01*
X72378Y287414D01*
X72344Y287405D01*
X72308Y287402D01*
X72177Y287361D01*
X72043Y287327D01*
X72012Y287310D01*
X71978Y287300D01*
X71859Y287229D01*
X71738Y287165D01*
X71711Y287142D01*
X71680Y287124D01*
X71526Y286989D01*
X70197Y285660D01*
X69940Y285403D01*
X69853Y285294D01*
X69762Y285189D01*
X69746Y285159D01*
X69725Y285132D01*
X69666Y285006D01*
X69601Y284883D01*
X69593Y284850D01*
X69578Y284819D01*
X69550Y284683D01*
X69515Y284548D01*
X69512Y284503D01*
X69507Y284481D01*
X69508Y284447D01*
X69501Y284343D01*
X69501Y282136D01*
X66864Y279499D01*
X63136Y279499D01*
X60499Y282136D01*
X60499Y285864D01*
X63136Y288501D01*
X65343Y288501D01*
X65481Y288517D01*
X65621Y288527D01*
X65653Y288537D01*
X65687Y288541D01*
X65817Y288588D01*
X65951Y288629D01*
X65980Y288647D01*
X66012Y288658D01*
X66129Y288734D01*
X66249Y288805D01*
X66283Y288835D01*
X66301Y288847D01*
X66325Y288871D01*
X66403Y288940D01*
X66660Y289197D01*
X66747Y289306D01*
X66838Y289411D01*
X66854Y289441D01*
X66875Y289468D01*
X66934Y289594D01*
X66999Y289717D01*
X67007Y289750D01*
X67022Y289781D01*
X67050Y289917D01*
X67085Y290052D01*
X67088Y290097D01*
X67093Y290119D01*
X67092Y290153D01*
X67099Y290257D01*
X67099Y295214D01*
X73852Y301967D01*
X73939Y302076D01*
X74030Y302181D01*
X74046Y302211D01*
X74067Y302238D01*
X74126Y302364D01*
X74191Y302488D01*
X74199Y302520D01*
X74214Y302551D01*
X74242Y302687D01*
X74277Y302822D01*
X74280Y302867D01*
X74285Y302889D01*
X74284Y302923D01*
X74291Y303027D01*
X74291Y304446D01*
X90746Y320901D01*
X94220Y320901D01*
X94320Y320912D01*
X94420Y320914D01*
X94491Y320932D01*
X94563Y320941D01*
X94658Y320975D01*
X94755Y321000D01*
X94820Y321033D01*
X94888Y321058D01*
X94973Y321113D01*
X95062Y321160D01*
X95150Y321229D01*
X95178Y321247D01*
X95192Y321262D01*
X95223Y321286D01*
X102021Y327410D01*
X102038Y327429D01*
X102078Y327464D01*
X103768Y329155D01*
X113078Y329155D01*
X113216Y329171D01*
X113356Y329181D01*
X113388Y329191D01*
X113422Y329195D01*
X113553Y329242D01*
X113686Y329283D01*
X113715Y329300D01*
X113747Y329312D01*
X113864Y329388D01*
X113984Y329459D01*
X114018Y329489D01*
X114036Y329501D01*
X114060Y329525D01*
X114138Y329594D01*
X138045Y353501D01*
X170343Y353501D01*
X170481Y353517D01*
X170621Y353527D01*
X170653Y353537D01*
X170687Y353541D01*
X170817Y353588D01*
X170951Y353629D01*
X170980Y353647D01*
X171012Y353658D01*
X171129Y353734D01*
X171249Y353805D01*
X171283Y353835D01*
X171301Y353847D01*
X171325Y353871D01*
X171403Y353940D01*
X172964Y355501D01*
X180036Y355501D01*
X183097Y352440D01*
X183206Y352353D01*
X183311Y352262D01*
X183341Y352246D01*
X183368Y352225D01*
X183494Y352166D01*
X183617Y352101D01*
X183650Y352093D01*
X183681Y352078D01*
X183817Y352050D01*
X183952Y352015D01*
X183997Y352012D01*
X184019Y352007D01*
X184053Y352008D01*
X184157Y352001D01*
X186364Y352001D01*
X189001Y349364D01*
X189001Y345636D01*
X188542Y345177D01*
X188520Y345149D01*
X188493Y345126D01*
X188413Y345014D01*
X188327Y344906D01*
X188312Y344873D01*
X188291Y344845D01*
X188239Y344717D01*
X188180Y344593D01*
X188173Y344558D01*
X188159Y344525D01*
X188137Y344389D01*
X188109Y344254D01*
X188110Y344219D01*
X188104Y344184D01*
X188114Y344046D01*
X188117Y343909D01*
X188126Y343874D01*
X188128Y343839D01*
X188169Y343707D01*
X188204Y343574D01*
X188221Y343543D01*
X188231Y343509D01*
X188301Y343390D01*
X188365Y343268D01*
X188389Y343242D01*
X188407Y343211D01*
X188542Y343056D01*
X189751Y341847D01*
X189751Y338533D01*
X181217Y329999D01*
X151878Y329999D01*
X151740Y329983D01*
X151601Y329973D01*
X151568Y329963D01*
X151535Y329959D01*
X151404Y329912D01*
X151271Y329871D01*
X151241Y329853D01*
X151210Y329842D01*
X151093Y329766D01*
X150973Y329695D01*
X150939Y329665D01*
X150920Y329653D01*
X150897Y329629D01*
X150818Y329560D01*
X149440Y328182D01*
X149353Y328073D01*
X149262Y327967D01*
X149246Y327937D01*
X149225Y327911D01*
X149166Y327785D01*
X149101Y327661D01*
X149093Y327629D01*
X149078Y327598D01*
X149050Y327462D01*
X149015Y327327D01*
X149012Y327281D01*
X149007Y327260D01*
X149008Y327226D01*
X149001Y327122D01*
X149001Y327036D01*
X148940Y326975D01*
X148853Y326866D01*
X148762Y326760D01*
X148746Y326730D01*
X148725Y326704D01*
X148666Y326578D01*
X148601Y326454D01*
X148593Y326421D01*
X148578Y326391D01*
X148550Y326255D01*
X148515Y326119D01*
X148512Y326074D01*
X148507Y326052D01*
X148508Y326019D01*
X148501Y325915D01*
X148501Y264885D01*
X148517Y264747D01*
X148527Y264608D01*
X148537Y264575D01*
X148541Y264542D01*
X148588Y264411D01*
X148629Y264278D01*
X148647Y264248D01*
X148658Y264217D01*
X148734Y264100D01*
X148805Y263980D01*
X148835Y263946D01*
X148847Y263927D01*
X148871Y263904D01*
X148940Y263825D01*
X151001Y261764D01*
X151001Y258036D01*
X148364Y255399D01*
X144636Y255399D01*
G37*
%LPD*%
%LPC*%
G36*
X134168Y45991D02*
X134168Y45991D01*
X128991Y51168D01*
X128991Y100152D01*
X129003Y100227D01*
X129032Y100362D01*
X129031Y100397D01*
X129037Y100433D01*
X129027Y100570D01*
X129024Y100707D01*
X129015Y100742D01*
X129012Y100778D01*
X128991Y100845D01*
X128991Y136500D01*
X128987Y136535D01*
X128990Y136571D01*
X128967Y136707D01*
X128951Y136843D01*
X128939Y136877D01*
X128934Y136912D01*
X128881Y137039D01*
X128834Y137169D01*
X128815Y137198D01*
X128801Y137231D01*
X128720Y137343D01*
X128645Y137458D01*
X128619Y137483D01*
X128599Y137511D01*
X128495Y137602D01*
X128395Y137697D01*
X128364Y137715D01*
X128338Y137738D01*
X128215Y137802D01*
X128097Y137872D01*
X128063Y137882D01*
X128031Y137899D01*
X127898Y137933D01*
X127766Y137974D01*
X127731Y137976D01*
X127697Y137985D01*
X127492Y137999D01*
X125343Y137999D01*
X122999Y140343D01*
X122999Y143657D01*
X125343Y146001D01*
X127492Y146001D01*
X127527Y146005D01*
X127563Y146002D01*
X127699Y146025D01*
X127835Y146041D01*
X127869Y146053D01*
X127904Y146058D01*
X128031Y146111D01*
X128161Y146158D01*
X128190Y146177D01*
X128223Y146191D01*
X128335Y146272D01*
X128450Y146347D01*
X128475Y146373D01*
X128503Y146393D01*
X128594Y146497D01*
X128689Y146597D01*
X128707Y146628D01*
X128730Y146654D01*
X128794Y146777D01*
X128864Y146895D01*
X128874Y146929D01*
X128891Y146961D01*
X128925Y147094D01*
X128966Y147226D01*
X128968Y147261D01*
X128977Y147295D01*
X128991Y147500D01*
X128991Y153832D01*
X130168Y155009D01*
X156832Y155009D01*
X158009Y153832D01*
X158009Y100848D01*
X157996Y100772D01*
X157968Y100638D01*
X157969Y100602D01*
X157963Y100567D01*
X157973Y100430D01*
X157976Y100292D01*
X157985Y100258D01*
X157988Y100222D01*
X158009Y100155D01*
X158009Y47168D01*
X156832Y45991D01*
X134168Y45991D01*
G37*
%LPD*%
%LPC*%
G36*
X165886Y218249D02*
X165886Y218249D01*
X163249Y220886D01*
X163249Y224614D01*
X165886Y227251D01*
X169614Y227251D01*
X169675Y227190D01*
X169784Y227103D01*
X169890Y227012D01*
X169920Y226996D01*
X169946Y226975D01*
X170072Y226916D01*
X170196Y226851D01*
X170229Y226843D01*
X170259Y226828D01*
X170395Y226800D01*
X170531Y226765D01*
X170576Y226762D01*
X170598Y226757D01*
X170631Y226758D01*
X170735Y226751D01*
X221765Y226751D01*
X221903Y226767D01*
X222042Y226777D01*
X222075Y226787D01*
X222108Y226791D01*
X222239Y226838D01*
X222372Y226879D01*
X222402Y226897D01*
X222433Y226908D01*
X222550Y226984D01*
X222670Y227055D01*
X222704Y227085D01*
X222723Y227097D01*
X222735Y227109D01*
X222736Y227110D01*
X222750Y227125D01*
X222825Y227190D01*
X223136Y227501D01*
X223222Y227501D01*
X223360Y227517D01*
X223499Y227527D01*
X223532Y227537D01*
X223565Y227541D01*
X223696Y227588D01*
X223829Y227629D01*
X223859Y227647D01*
X223890Y227658D01*
X224007Y227734D01*
X224127Y227805D01*
X224161Y227835D01*
X224180Y227847D01*
X224203Y227871D01*
X224282Y227940D01*
X226560Y230218D01*
X226628Y230304D01*
X226681Y230359D01*
X226694Y230382D01*
X226738Y230433D01*
X226754Y230463D01*
X226775Y230489D01*
X226834Y230615D01*
X226899Y230739D01*
X226907Y230771D01*
X226922Y230802D01*
X226950Y230938D01*
X226985Y231073D01*
X226988Y231119D01*
X226993Y231140D01*
X226992Y231174D01*
X226999Y231278D01*
X226999Y236203D01*
X226983Y236342D01*
X226973Y236481D01*
X226963Y236513D01*
X226959Y236547D01*
X226912Y236678D01*
X226871Y236811D01*
X226853Y236840D01*
X226842Y236872D01*
X226766Y236989D01*
X226695Y237109D01*
X226665Y237143D01*
X226653Y237162D01*
X226629Y237185D01*
X226560Y237264D01*
X225710Y238114D01*
X225682Y238136D01*
X225659Y238162D01*
X225547Y238243D01*
X225439Y238328D01*
X225407Y238343D01*
X225378Y238364D01*
X225251Y238417D01*
X225126Y238475D01*
X225091Y238482D01*
X225059Y238496D01*
X224922Y238518D01*
X224788Y238546D01*
X224752Y238546D01*
X224717Y238551D01*
X224580Y238542D01*
X224442Y238538D01*
X224408Y238529D01*
X224372Y238527D01*
X224241Y238486D01*
X224108Y238451D01*
X224076Y238435D01*
X224042Y238424D01*
X223923Y238354D01*
X223802Y238290D01*
X223775Y238266D01*
X223745Y238248D01*
X223590Y238114D01*
X222096Y236619D01*
X219633Y235599D01*
X216967Y235599D01*
X214504Y236619D01*
X212619Y238504D01*
X211599Y240967D01*
X211599Y243633D01*
X212619Y246096D01*
X214114Y247590D01*
X214136Y247618D01*
X214162Y247641D01*
X214243Y247753D01*
X214328Y247861D01*
X214343Y247893D01*
X214364Y247922D01*
X214417Y248049D01*
X214475Y248174D01*
X214482Y248209D01*
X214496Y248241D01*
X214518Y248378D01*
X214546Y248512D01*
X214546Y248548D01*
X214551Y248583D01*
X214542Y248720D01*
X214538Y248858D01*
X214529Y248892D01*
X214527Y248928D01*
X214486Y249059D01*
X214451Y249192D01*
X214435Y249224D01*
X214424Y249258D01*
X214354Y249377D01*
X214290Y249498D01*
X214267Y249525D01*
X214248Y249556D01*
X214114Y249710D01*
X212619Y251204D01*
X211599Y253667D01*
X211599Y256333D01*
X212619Y258796D01*
X214504Y260681D01*
X216967Y261701D01*
X219633Y261701D01*
X222096Y260681D01*
X223590Y259186D01*
X223618Y259164D01*
X223641Y259138D01*
X223753Y259057D01*
X223861Y258972D01*
X223893Y258957D01*
X223922Y258936D01*
X224049Y258883D01*
X224174Y258825D01*
X224209Y258818D01*
X224241Y258804D01*
X224378Y258782D01*
X224512Y258754D01*
X224548Y258754D01*
X224583Y258749D01*
X224720Y258758D01*
X224858Y258762D01*
X224892Y258771D01*
X224928Y258773D01*
X225059Y258814D01*
X225192Y258849D01*
X225224Y258865D01*
X225258Y258876D01*
X225377Y258946D01*
X225498Y259010D01*
X225525Y259033D01*
X225556Y259052D01*
X225710Y259186D01*
X227204Y260681D01*
X229667Y261701D01*
X232333Y261701D01*
X234803Y260677D01*
X234818Y260661D01*
X234930Y260580D01*
X235038Y260495D01*
X235070Y260480D01*
X235099Y260459D01*
X235226Y260406D01*
X235351Y260348D01*
X235386Y260341D01*
X235418Y260327D01*
X235554Y260305D01*
X235689Y260277D01*
X235725Y260277D01*
X235760Y260272D01*
X235897Y260282D01*
X236035Y260285D01*
X236069Y260294D01*
X236105Y260296D01*
X236236Y260337D01*
X236369Y260372D01*
X236401Y260388D01*
X236435Y260399D01*
X236553Y260469D01*
X236675Y260533D01*
X236702Y260557D01*
X236732Y260575D01*
X236887Y260709D01*
X237878Y261701D01*
X249522Y261701D01*
X250401Y260822D01*
X250401Y249178D01*
X249690Y248468D01*
X249652Y248420D01*
X249607Y248378D01*
X249545Y248285D01*
X249476Y248197D01*
X249450Y248141D01*
X249415Y248090D01*
X249376Y247985D01*
X249329Y247884D01*
X249316Y247824D01*
X249295Y247766D01*
X249281Y247655D01*
X249258Y247546D01*
X249259Y247484D01*
X249251Y247423D01*
X249263Y247312D01*
X249266Y247200D01*
X249281Y247140D01*
X249288Y247079D01*
X249324Y246974D01*
X249353Y246865D01*
X249382Y246811D01*
X249402Y246753D01*
X249504Y246575D01*
X250081Y245711D01*
X250624Y244400D01*
X250719Y243924D01*
X243825Y243924D01*
X243790Y243920D01*
X243755Y243923D01*
X243619Y243900D01*
X243482Y243884D01*
X243448Y243872D01*
X243413Y243867D01*
X243286Y243814D01*
X243157Y243767D01*
X243127Y243748D01*
X243094Y243734D01*
X242982Y243653D01*
X242867Y243578D01*
X242843Y243552D01*
X242814Y243532D01*
X242723Y243428D01*
X242647Y243348D01*
X242617Y243328D01*
X242592Y243302D01*
X242564Y243281D01*
X242473Y243177D01*
X242378Y243078D01*
X242360Y243047D01*
X242337Y243020D01*
X242273Y242898D01*
X242203Y242780D01*
X242193Y242746D01*
X242176Y242714D01*
X242142Y242581D01*
X242101Y242449D01*
X242099Y242414D01*
X242090Y242379D01*
X242076Y242175D01*
X242076Y235281D01*
X241600Y235376D01*
X240289Y235919D01*
X239110Y236707D01*
X238057Y237760D01*
X238029Y237782D01*
X238006Y237809D01*
X237894Y237889D01*
X237786Y237975D01*
X237754Y237990D01*
X237725Y238010D01*
X237597Y238063D01*
X237473Y238122D01*
X237438Y238129D01*
X237405Y238142D01*
X237269Y238164D01*
X237134Y238193D01*
X237099Y238192D01*
X237064Y238198D01*
X236926Y238188D01*
X236789Y238185D01*
X236754Y238176D01*
X236719Y238173D01*
X236588Y238132D01*
X236454Y238098D01*
X236423Y238081D01*
X236389Y238071D01*
X236270Y238001D01*
X236148Y237936D01*
X236122Y237913D01*
X236091Y237895D01*
X235936Y237760D01*
X235440Y237264D01*
X235354Y237155D01*
X235262Y237049D01*
X235246Y237019D01*
X235225Y236993D01*
X235166Y236867D01*
X235101Y236743D01*
X235093Y236710D01*
X235078Y236680D01*
X235050Y236544D01*
X235015Y236408D01*
X235012Y236363D01*
X235007Y236341D01*
X235008Y236308D01*
X235001Y236203D01*
X235001Y227343D01*
X229940Y222282D01*
X229853Y222173D01*
X229762Y222067D01*
X229746Y222037D01*
X229725Y222011D01*
X229666Y221885D01*
X229601Y221761D01*
X229593Y221729D01*
X229578Y221698D01*
X229550Y221562D01*
X229515Y221427D01*
X229512Y221381D01*
X229507Y221360D01*
X229508Y221326D01*
X229501Y221222D01*
X229501Y221136D01*
X226864Y218499D01*
X223089Y218499D01*
X223080Y218504D01*
X223054Y218525D01*
X222928Y218584D01*
X222804Y218649D01*
X222771Y218657D01*
X222741Y218672D01*
X222605Y218700D01*
X222469Y218735D01*
X222424Y218738D01*
X222402Y218743D01*
X222369Y218742D01*
X222265Y218749D01*
X170735Y218749D01*
X170597Y218733D01*
X170458Y218723D01*
X170425Y218713D01*
X170392Y218709D01*
X170261Y218662D01*
X170128Y218621D01*
X170098Y218603D01*
X170067Y218592D01*
X169950Y218516D01*
X169830Y218445D01*
X169796Y218415D01*
X169777Y218403D01*
X169754Y218379D01*
X169675Y218310D01*
X169614Y218249D01*
X165886Y218249D01*
G37*
%LPD*%
G36*
X156005Y101494D02*
X156005Y101494D01*
X156010Y101493D01*
X156103Y101514D01*
X156197Y101532D01*
X156201Y101535D01*
X156206Y101536D01*
X156284Y101592D01*
X156362Y101645D01*
X156365Y101649D01*
X156369Y101652D01*
X156420Y101734D01*
X156472Y101813D01*
X156472Y101818D01*
X156475Y101823D01*
X156507Y102000D01*
X156507Y153000D01*
X156506Y153005D01*
X156507Y153010D01*
X156486Y153103D01*
X156468Y153197D01*
X156465Y153201D01*
X156464Y153206D01*
X156408Y153284D01*
X156355Y153362D01*
X156351Y153365D01*
X156348Y153369D01*
X156266Y153420D01*
X156187Y153472D01*
X156182Y153472D01*
X156177Y153475D01*
X156000Y153507D01*
X131000Y153507D01*
X130995Y153506D01*
X130990Y153507D01*
X130897Y153486D01*
X130804Y153468D01*
X130799Y153465D01*
X130794Y153464D01*
X130716Y153408D01*
X130638Y153355D01*
X130635Y153351D01*
X130631Y153348D01*
X130580Y153266D01*
X130528Y153187D01*
X130528Y153182D01*
X130525Y153177D01*
X130493Y153000D01*
X130493Y102000D01*
X130494Y101995D01*
X130493Y101990D01*
X130514Y101897D01*
X130532Y101804D01*
X130535Y101799D01*
X130536Y101794D01*
X130592Y101716D01*
X130645Y101638D01*
X130649Y101635D01*
X130652Y101631D01*
X130734Y101580D01*
X130813Y101528D01*
X130818Y101528D01*
X130823Y101525D01*
X131000Y101493D01*
X156000Y101493D01*
X156005Y101494D01*
G37*
G36*
X156005Y47494D02*
X156005Y47494D01*
X156010Y47493D01*
X156103Y47514D01*
X156197Y47532D01*
X156201Y47535D01*
X156206Y47536D01*
X156284Y47592D01*
X156362Y47645D01*
X156365Y47649D01*
X156369Y47652D01*
X156420Y47734D01*
X156472Y47813D01*
X156472Y47818D01*
X156475Y47823D01*
X156507Y48000D01*
X156507Y99000D01*
X156506Y99005D01*
X156507Y99010D01*
X156486Y99103D01*
X156468Y99197D01*
X156465Y99201D01*
X156464Y99206D01*
X156408Y99284D01*
X156355Y99362D01*
X156351Y99365D01*
X156348Y99369D01*
X156266Y99420D01*
X156187Y99472D01*
X156182Y99472D01*
X156177Y99475D01*
X156000Y99507D01*
X131000Y99507D01*
X130995Y99506D01*
X130990Y99507D01*
X130897Y99486D01*
X130804Y99468D01*
X130799Y99465D01*
X130794Y99464D01*
X130716Y99408D01*
X130638Y99355D01*
X130635Y99351D01*
X130631Y99348D01*
X130580Y99266D01*
X130528Y99187D01*
X130528Y99182D01*
X130525Y99177D01*
X130493Y99000D01*
X130493Y52000D01*
X130494Y51992D01*
X130493Y51985D01*
X130514Y51895D01*
X130532Y51804D01*
X130537Y51797D01*
X130539Y51789D01*
X130641Y51641D01*
X134641Y47641D01*
X134648Y47637D01*
X134652Y47631D01*
X134731Y47582D01*
X134808Y47530D01*
X134816Y47529D01*
X134823Y47525D01*
X135000Y47493D01*
X156000Y47493D01*
X156005Y47494D01*
G37*
%LPC*%
G36*
X99636Y196199D02*
X99636Y196199D01*
X96999Y198836D01*
X96999Y198922D01*
X96983Y199060D01*
X96973Y199199D01*
X96963Y199232D01*
X96959Y199265D01*
X96912Y199396D01*
X96871Y199529D01*
X96853Y199559D01*
X96842Y199590D01*
X96766Y199707D01*
X96695Y199827D01*
X96665Y199861D01*
X96653Y199880D01*
X96629Y199903D01*
X96560Y199982D01*
X82499Y214043D01*
X82499Y250222D01*
X82483Y250360D01*
X82473Y250499D01*
X82463Y250532D01*
X82459Y250565D01*
X82412Y250696D01*
X82371Y250829D01*
X82353Y250859D01*
X82342Y250890D01*
X82266Y251007D01*
X82195Y251127D01*
X82165Y251161D01*
X82153Y251180D01*
X82129Y251203D01*
X82060Y251282D01*
X77282Y256060D01*
X77173Y256147D01*
X77067Y256238D01*
X77037Y256254D01*
X77011Y256275D01*
X76885Y256334D01*
X76761Y256399D01*
X76729Y256407D01*
X76698Y256422D01*
X76562Y256450D01*
X76427Y256485D01*
X76381Y256488D01*
X76360Y256493D01*
X76326Y256492D01*
X76222Y256499D01*
X59495Y256499D01*
X59357Y256483D01*
X59218Y256473D01*
X59185Y256463D01*
X59152Y256459D01*
X59021Y256412D01*
X58888Y256371D01*
X58858Y256353D01*
X58827Y256342D01*
X58710Y256266D01*
X58590Y256195D01*
X58556Y256165D01*
X58537Y256153D01*
X58514Y256129D01*
X58435Y256060D01*
X58374Y255999D01*
X54646Y255999D01*
X52009Y258636D01*
X52009Y262364D01*
X54646Y265001D01*
X58374Y265001D01*
X58435Y264940D01*
X58544Y264853D01*
X58650Y264762D01*
X58680Y264746D01*
X58706Y264725D01*
X58832Y264666D01*
X58956Y264601D01*
X58989Y264593D01*
X59019Y264578D01*
X59155Y264550D01*
X59291Y264515D01*
X59336Y264512D01*
X59358Y264507D01*
X59391Y264508D01*
X59495Y264501D01*
X80157Y264501D01*
X90501Y254157D01*
X90501Y217978D01*
X90517Y217840D01*
X90527Y217701D01*
X90537Y217668D01*
X90541Y217635D01*
X90588Y217504D01*
X90629Y217371D01*
X90647Y217341D01*
X90658Y217310D01*
X90734Y217193D01*
X90805Y217073D01*
X90835Y217039D01*
X90847Y217020D01*
X90871Y216997D01*
X90940Y216918D01*
X102218Y205640D01*
X102327Y205553D01*
X102433Y205462D01*
X102463Y205446D01*
X102489Y205425D01*
X102615Y205366D01*
X102739Y205301D01*
X102771Y205293D01*
X102802Y205278D01*
X102938Y205250D01*
X103073Y205215D01*
X103119Y205212D01*
X103140Y205207D01*
X103174Y205208D01*
X103278Y205201D01*
X103364Y205201D01*
X106001Y202564D01*
X106001Y198836D01*
X103364Y196199D01*
X99636Y196199D01*
G37*
%LPD*%
G36*
X118482Y313919D02*
X118482Y313919D01*
X118641Y313934D01*
X118655Y313939D01*
X118668Y313941D01*
X118817Y313994D01*
X118969Y314046D01*
X118980Y314053D01*
X118994Y314058D01*
X119127Y314145D01*
X119262Y314229D01*
X119275Y314241D01*
X119283Y314247D01*
X119301Y314265D01*
X119413Y314368D01*
X122906Y318051D01*
X122957Y318119D01*
X123015Y318180D01*
X123060Y318257D01*
X123114Y318328D01*
X123148Y318406D01*
X123190Y318478D01*
X123217Y318563D01*
X123252Y318645D01*
X123267Y318728D01*
X123292Y318809D01*
X123299Y318898D01*
X123315Y318985D01*
X123310Y319069D01*
X123316Y319154D01*
X123302Y319242D01*
X123297Y319330D01*
X123274Y319411D01*
X123260Y319495D01*
X123226Y319577D01*
X123201Y319662D01*
X123160Y319736D01*
X123127Y319814D01*
X123076Y319886D01*
X123032Y319964D01*
X122975Y320026D01*
X122925Y320095D01*
X122858Y320153D01*
X122798Y320218D01*
X122728Y320266D01*
X122664Y320321D01*
X122585Y320363D01*
X122512Y320412D01*
X122433Y320443D01*
X122358Y320482D01*
X122272Y320504D01*
X122189Y320536D01*
X122105Y320547D01*
X122023Y320568D01*
X121871Y320579D01*
X121846Y320582D01*
X121836Y320581D01*
X121819Y320582D01*
X107719Y320582D01*
X107619Y320571D01*
X107519Y320569D01*
X107448Y320551D01*
X107376Y320543D01*
X107281Y320508D01*
X107184Y320484D01*
X107119Y320450D01*
X107051Y320425D01*
X106966Y320370D01*
X106877Y320324D01*
X106789Y320255D01*
X106761Y320236D01*
X106747Y320222D01*
X106716Y320197D01*
X102627Y316514D01*
X102533Y316407D01*
X102434Y316303D01*
X102419Y316277D01*
X102399Y316254D01*
X102332Y316128D01*
X102259Y316005D01*
X102250Y315976D01*
X102236Y315949D01*
X102199Y315811D01*
X102157Y315674D01*
X102155Y315644D01*
X102147Y315615D01*
X102143Y315472D01*
X102133Y315329D01*
X102138Y315300D01*
X102137Y315270D01*
X102166Y315130D01*
X102189Y314988D01*
X102201Y314960D01*
X102207Y314931D01*
X102267Y314801D01*
X102322Y314669D01*
X102340Y314645D01*
X102352Y314617D01*
X102441Y314505D01*
X102524Y314389D01*
X102547Y314369D01*
X102566Y314345D01*
X102677Y314256D01*
X102785Y314162D01*
X102812Y314148D01*
X102836Y314129D01*
X102965Y314068D01*
X103091Y314001D01*
X103121Y313994D01*
X103148Y313981D01*
X103287Y313951D01*
X103426Y313915D01*
X103466Y313912D01*
X103486Y313908D01*
X103519Y313908D01*
X103631Y313901D01*
X118325Y313901D01*
X118482Y313919D01*
G37*
%LPC*%
G36*
X245324Y240676D02*
X245324Y240676D01*
X250719Y240676D01*
X250624Y240200D01*
X250081Y238889D01*
X249293Y237710D01*
X248290Y236707D01*
X247111Y235919D01*
X245800Y235376D01*
X245324Y235281D01*
X245324Y240676D01*
G37*
%LPD*%
D10*
X243700Y255000D03*
D11*
X243700Y242300D03*
X231000Y255000D03*
X231000Y242300D03*
X218300Y255000D03*
X218300Y242300D03*
D12*
X164500Y306900D03*
X174500Y306900D03*
X184500Y306900D03*
X164500Y296900D03*
X174500Y296900D03*
X184500Y296900D03*
X164500Y286900D03*
X174500Y286900D03*
X184500Y286900D03*
D13*
X83000Y91000D03*
D12*
X178000Y190000D03*
X241000Y211000D03*
X228000Y211000D03*
D14*
X171000Y77000D03*
X167000Y55000D03*
X180000Y127000D03*
X190000Y127000D03*
X199000Y127000D03*
X180000Y138000D03*
X199000Y138000D03*
X180000Y149000D03*
X170000Y149000D03*
X190000Y149000D03*
X190000Y138000D03*
X177000Y55000D03*
X187000Y56000D03*
X187000Y66000D03*
X180000Y77000D03*
D12*
X92500Y256900D03*
X107800Y317100D03*
X114900Y317100D03*
X193500Y354150D03*
X233500Y321150D03*
X233500Y309900D03*
X246660Y326290D03*
X218280Y355710D03*
X203500Y354150D03*
X155260Y240950D03*
X234500Y276900D03*
X234500Y295900D03*
X213500Y277900D03*
X251000Y277000D03*
X262000Y276000D03*
X267000Y268000D03*
X269000Y258000D03*
X276000Y248000D03*
X286000Y242000D03*
X299000Y241000D03*
X297000Y259000D03*
X287000Y262000D03*
X285000Y273000D03*
X280000Y283000D03*
X272000Y291000D03*
X260000Y296000D03*
X247000Y296000D03*
X178000Y200000D03*
X111000Y155000D03*
X101000Y155000D03*
X121000Y155000D03*
X94798Y71987D03*
X103975Y85094D03*
X99387Y78540D03*
X86000Y123000D03*
X67000Y110000D03*
X74000Y110000D03*
X60000Y110000D03*
X88000Y139000D03*
X215000Y151000D03*
X231000Y151000D03*
X200000Y366250D03*
X217555Y365293D03*
X234770Y362516D03*
X251556Y358100D03*
X267927Y351843D03*
X283554Y343815D03*
X298167Y334401D03*
X311756Y323407D03*
X311865Y75214D03*
X298286Y64209D03*
X283631Y54682D03*
X268061Y46740D03*
X251746Y40469D03*
X234864Y35938D03*
X217602Y33196D03*
X200147Y32274D03*
X182692Y33181D03*
X165427Y35907D03*
X148541Y40424D03*
X125220Y49680D03*
X100980Y65122D03*
X41236Y249794D03*
X47492Y267115D03*
X55421Y282692D03*
X64934Y297355D03*
X75928Y310944D03*
X88282Y323309D03*
X101861Y334315D03*
X116516Y343841D03*
X132086Y351783D03*
X148401Y358054D03*
X165283Y362586D03*
X182545Y365328D03*
X271600Y132500D03*
X293000Y146000D03*
X251000Y146000D03*
X293000Y188000D03*
X312000Y241000D03*
X312000Y221000D03*
X312000Y201000D03*
X312000Y181000D03*
X312000Y161000D03*
X312000Y141000D03*
X312000Y121000D03*
X312000Y101000D03*
X312000Y259000D03*
X312000Y279000D03*
X312000Y299000D03*
X92000Y199000D03*
X94000Y183000D03*
X77000Y219000D03*
X74000Y199000D03*
X74000Y179000D03*
X96000Y224000D03*
X112000Y224000D03*
X102000Y214000D03*
X203000Y200000D03*
X45000Y140000D03*
X54000Y120000D03*
X38000Y160000D03*
X34000Y180000D03*
X33000Y200000D03*
X35000Y220000D03*
D14*
X162000Y77000D03*
X162000Y85000D03*
D12*
X145000Y161000D03*
X110000Y180000D03*
X130000Y210000D03*
X150000Y210000D03*
X170000Y210000D03*
X150000Y190000D03*
X170000Y190000D03*
X150000Y170000D03*
X170000Y170000D03*
X190000Y170000D03*
X120000Y200000D03*
X210000Y170000D03*
X290000Y120000D03*
X280000Y230000D03*
X280000Y210000D03*
X300000Y210000D03*
X300000Y230000D03*
X260000Y230000D03*
X300000Y270000D03*
X300000Y290000D03*
X300000Y310000D03*
X280000Y310000D03*
X260000Y310000D03*
X260000Y330000D03*
X280000Y330000D03*
X278000Y129000D03*
X281000Y122000D03*
X186000Y261000D03*
X196000Y243000D03*
X146500Y259900D03*
X144500Y328900D03*
D14*
X185750Y340190D03*
D15*
X144500Y261900D02*
X146500Y259900D01*
X144500Y261900D02*
X144500Y328900D01*
X144790Y329190D01*
X179560Y334000D02*
X185750Y340190D01*
X179560Y334000D02*
X149600Y334000D01*
X144500Y328900D01*
D12*
X56510Y260500D03*
X225000Y223000D03*
D15*
X231000Y229000D01*
X231000Y242300D01*
D12*
X167750Y222750D03*
D15*
X224750Y222750D01*
X225000Y223000D01*
X78500Y260500D02*
X56510Y260500D01*
X78500Y260500D02*
X86500Y252500D01*
X86500Y215700D01*
X101500Y200700D01*
D12*
X101500Y200700D03*
X56000Y130000D03*
X63000Y130000D03*
X49000Y130000D03*
D16*
X56000Y130000D01*
X63000Y130000D01*
D12*
X184500Y347500D03*
X65000Y284000D03*
D17*
X179000Y353000D02*
X184500Y347500D01*
X179000Y353000D02*
X174000Y353000D01*
X103773Y325622D02*
X95756Y318400D01*
X91782Y318400D01*
X76792Y303410D01*
X69600Y288600D02*
X65000Y284000D01*
X69600Y288600D02*
X69600Y294178D01*
X76792Y301370D02*
X76792Y303410D01*
X76792Y301370D02*
X69600Y294178D01*
X104804Y326654D02*
X114735Y326654D01*
X104804Y326654D02*
X103773Y325622D01*
X114735Y326654D02*
X139081Y351000D01*
X172000Y351000D01*
X174000Y353000D01*
D12*
X177000Y347000D03*
X75100Y291900D03*
D17*
X174172Y347000D02*
X177000Y347000D01*
X174172Y347000D02*
X173778Y347393D01*
X106183Y323083D02*
X97100Y314900D01*
X80292Y297092D02*
X75100Y291900D01*
X106183Y323083D02*
X125098Y323083D01*
X80292Y301960D02*
X80292Y297092D01*
X148508Y347393D02*
X173778Y347393D01*
X148508Y347393D02*
X125098Y323083D01*
X97100Y314900D02*
X93232Y314900D01*
X80292Y301960D01*
D12*
X171500Y341893D03*
D17*
X96400Y311400D02*
X85000Y300000D01*
X120044Y311400D02*
X148995Y341922D01*
X120044Y311400D02*
X96400Y311400D01*
X85000Y300000D02*
X85318Y299682D01*
X85792Y299682D01*
D12*
X85792Y299682D03*
D17*
X148995Y341922D02*
X171471Y341922D01*
X171500Y341893D01*
D14*
X146000Y79000D03*
X142000Y66000D03*
X146000Y54000D03*
X134000Y54000D03*
X134000Y66000D03*
X134000Y79000D03*
D12*
X134000Y96000D03*
X140000Y87000D03*
D14*
X143000Y124000D03*
X134000Y124000D03*
X143000Y136000D03*
X134000Y136000D03*
X143000Y149000D03*
X134000Y149000D03*
X152000Y124000D03*
X134000Y112000D03*
X127000Y142000D03*
D12*
X115770Y67069D03*
X111181Y60516D03*
X120358Y73622D03*
D16*
X115770Y67069D02*
X111181Y60516D01*
X115770Y67069D02*
X120358Y73622D01*
D12*
X41000Y210000D03*
X48000Y210000D03*
X34000Y210000D03*
D16*
X41000Y210000D01*
X48000Y210000D01*
D12*
X41000Y190000D03*
X48000Y190000D03*
X34000Y190000D03*
D16*
X41000Y190000D01*
X48000Y190000D01*
D12*
X48000Y150000D03*
X55000Y150000D03*
X41000Y150000D03*
D16*
X48000Y150000D01*
X55000Y150000D01*
D12*
X43000Y170000D03*
X50000Y170000D03*
X36000Y170000D03*
D16*
X43000Y170000D01*
X50000Y170000D01*
D12*
X44000Y230000D03*
X37000Y230000D03*
X51000Y230000D03*
D16*
X44000Y230000D02*
X37000Y230000D01*
X44000Y230000D02*
X51000Y230000D01*
M02*
