G04 EAGLE Gerber RS-274X export*
G75*
%MOMM*%
%FSLAX34Y34*%
%LPD*%
%INSilkscreen Top*%
%IPPOS*%
%AMOC8*
5,1,8,0,0,1.08239X$1,22.5*%
G01*
%ADD10C,0.101600*%
%ADD11C,0.150000*%
%ADD12C,0.152400*%
%ADD13C,0.127000*%
%ADD14C,0.100000*%
%ADD15C,0.200000*%

G36*
X375005Y185494D02*
X375005Y185494D01*
X375010Y185493D01*
X375103Y185514D01*
X375197Y185532D01*
X375201Y185535D01*
X375206Y185536D01*
X375284Y185592D01*
X375362Y185645D01*
X375365Y185649D01*
X375369Y185652D01*
X375420Y185734D01*
X375472Y185813D01*
X375472Y185818D01*
X375475Y185823D01*
X375507Y186000D01*
X375507Y197000D01*
X375505Y197012D01*
X375507Y197025D01*
X374507Y217025D01*
X374502Y217043D01*
X374503Y217063D01*
X372503Y233063D01*
X372493Y233094D01*
X372489Y233133D01*
X369489Y244133D01*
X369483Y244145D01*
X369481Y244160D01*
X363481Y262160D01*
X363473Y262176D01*
X363468Y262195D01*
X358468Y274195D01*
X358459Y274209D01*
X358454Y274227D01*
X352454Y286227D01*
X352442Y286241D01*
X352435Y286261D01*
X346435Y296261D01*
X346388Y296313D01*
X346348Y296369D01*
X346321Y296386D01*
X346300Y296409D01*
X346237Y296438D01*
X346177Y296475D01*
X346144Y296481D01*
X346118Y296493D01*
X346067Y296495D01*
X346000Y296507D01*
X331000Y296507D01*
X330995Y296506D01*
X330990Y296507D01*
X330897Y296486D01*
X330804Y296468D01*
X330799Y296465D01*
X330794Y296464D01*
X330716Y296408D01*
X330638Y296355D01*
X330635Y296351D01*
X330631Y296348D01*
X330580Y296266D01*
X330528Y296187D01*
X330528Y296182D01*
X330525Y296177D01*
X330493Y296000D01*
X330493Y186000D01*
X330494Y185995D01*
X330493Y185990D01*
X330514Y185897D01*
X330532Y185804D01*
X330535Y185799D01*
X330536Y185794D01*
X330592Y185716D01*
X330645Y185638D01*
X330649Y185635D01*
X330652Y185631D01*
X330734Y185580D01*
X330813Y185528D01*
X330818Y185528D01*
X330823Y185525D01*
X331000Y185493D01*
X375000Y185493D01*
X375005Y185494D01*
G37*
D10*
X89501Y107999D02*
X88503Y108997D01*
X86506Y108997D01*
X85508Y107999D01*
X85508Y104006D01*
X86506Y103008D01*
X88503Y103008D01*
X89501Y104006D01*
X89501Y106003D01*
X87504Y106003D01*
X91954Y108997D02*
X91954Y103008D01*
X95946Y103008D02*
X91954Y108997D01*
X95946Y108997D02*
X95946Y103008D01*
X98399Y103008D02*
X98399Y108997D01*
X98399Y103008D02*
X101394Y103008D01*
X102392Y104006D01*
X102392Y107999D01*
X101394Y108997D01*
X98399Y108997D01*
X211506Y100501D02*
X214501Y100501D01*
X211506Y100501D02*
X210508Y99503D01*
X210508Y97506D01*
X211506Y96508D01*
X214501Y96508D01*
X105215Y64512D02*
X100309Y67947D01*
X102026Y70400D01*
X103416Y70645D01*
X104234Y70072D01*
X104479Y68682D01*
X105869Y68927D01*
X106687Y68355D01*
X106932Y66965D01*
X105215Y64512D01*
X102762Y66229D02*
X104479Y68682D01*
X105641Y72082D02*
X108912Y69791D01*
X105641Y72082D02*
X105151Y74862D01*
X107931Y75352D01*
X111202Y73062D01*
X108749Y74780D02*
X106459Y71509D01*
X113754Y76707D02*
X108848Y80142D01*
X107703Y78507D02*
X109993Y81777D01*
X108644Y91006D02*
X110934Y94277D01*
X127951Y82515D02*
X125660Y79245D01*
X125170Y82025D02*
X128441Y79735D01*
X69506Y132997D02*
X68508Y131999D01*
X69506Y132997D02*
X71503Y132997D01*
X72501Y131999D01*
X72501Y131001D01*
X71503Y130003D01*
X70504Y130003D01*
X71503Y130003D02*
X72501Y129004D01*
X72501Y128006D01*
X71503Y127008D01*
X69506Y127008D01*
X68508Y128006D01*
X74954Y129004D02*
X74954Y132997D01*
X74954Y129004D02*
X76950Y127008D01*
X78946Y129004D01*
X78946Y132997D01*
X81399Y131999D02*
X82397Y132997D01*
X84394Y132997D01*
X85392Y131999D01*
X85392Y131001D01*
X84394Y130003D01*
X83395Y130003D01*
X84394Y130003D02*
X85392Y129004D01*
X85392Y128006D01*
X84394Y127008D01*
X82397Y127008D01*
X81399Y128006D01*
X49508Y156008D02*
X49508Y161997D01*
X52503Y161997D01*
X53501Y160999D01*
X53501Y159003D01*
X52503Y158004D01*
X49508Y158004D01*
X55954Y157006D02*
X55954Y160999D01*
X56952Y161997D01*
X58948Y161997D01*
X59946Y160999D01*
X59946Y157006D01*
X58948Y156008D01*
X56952Y156008D01*
X55954Y157006D01*
X59946Y160999D01*
X62399Y157006D02*
X62399Y156008D01*
X62399Y157006D02*
X63397Y157006D01*
X63397Y156008D01*
X62399Y156008D01*
X65622Y160001D02*
X67618Y161997D01*
X67618Y156008D01*
X65622Y156008D02*
X69614Y156008D01*
X72067Y157006D02*
X72067Y160999D01*
X73065Y161997D01*
X75062Y161997D01*
X76060Y160999D01*
X76060Y157006D01*
X75062Y156008D01*
X73065Y156008D01*
X72067Y157006D01*
X76060Y160999D01*
X55508Y167008D02*
X55508Y172997D01*
X58503Y172997D01*
X59501Y171999D01*
X59501Y170003D01*
X58503Y169004D01*
X55508Y169004D01*
X61954Y168006D02*
X61954Y171999D01*
X62952Y172997D01*
X64948Y172997D01*
X65946Y171999D01*
X65946Y168006D01*
X64948Y167008D01*
X62952Y167008D01*
X61954Y168006D01*
X65946Y171999D01*
X68399Y168006D02*
X68399Y167008D01*
X68399Y168006D02*
X69397Y168006D01*
X69397Y167008D01*
X68399Y167008D01*
X71622Y168006D02*
X72620Y167008D01*
X74616Y167008D01*
X75614Y168006D01*
X75614Y171999D01*
X74616Y172997D01*
X72620Y172997D01*
X71622Y171999D01*
X71622Y171001D01*
X72620Y170003D01*
X75614Y170003D01*
X53508Y187008D02*
X53508Y192997D01*
X56503Y192997D01*
X57501Y191999D01*
X57501Y190003D01*
X56503Y189004D01*
X53508Y189004D01*
X59954Y188006D02*
X59954Y191999D01*
X60952Y192997D01*
X62948Y192997D01*
X63946Y191999D01*
X63946Y188006D01*
X62948Y187008D01*
X60952Y187008D01*
X59954Y188006D01*
X63946Y191999D01*
X66399Y188006D02*
X66399Y187008D01*
X66399Y188006D02*
X67397Y188006D01*
X67397Y187008D01*
X66399Y187008D01*
X71618Y191999D02*
X73614Y192997D01*
X71618Y191999D02*
X69622Y190003D01*
X69622Y188006D01*
X70620Y187008D01*
X72616Y187008D01*
X73614Y188006D01*
X73614Y189004D01*
X72616Y190003D01*
X69622Y190003D01*
X53508Y207008D02*
X53508Y211001D01*
X55504Y212997D01*
X57501Y211001D01*
X57501Y207008D01*
X57501Y210003D02*
X53508Y210003D01*
X59954Y207008D02*
X61950Y207008D01*
X60952Y207008D02*
X60952Y212997D01*
X59954Y212997D02*
X61950Y212997D01*
X64251Y212997D02*
X64251Y207008D01*
X68243Y207008D02*
X64251Y212997D01*
X68243Y212997D02*
X68243Y207008D01*
X70696Y211999D02*
X71694Y212997D01*
X73691Y212997D01*
X74689Y211999D01*
X74689Y211001D01*
X73691Y210003D01*
X72692Y210003D01*
X73691Y210003D02*
X74689Y209004D01*
X74689Y208006D01*
X73691Y207008D01*
X71694Y207008D01*
X70696Y208006D01*
X56508Y227008D02*
X56508Y231001D01*
X58504Y232997D01*
X60501Y231001D01*
X60501Y227008D01*
X60501Y230003D02*
X56508Y230003D01*
X62954Y227008D02*
X64950Y227008D01*
X63952Y227008D02*
X63952Y232997D01*
X62954Y232997D02*
X64950Y232997D01*
X67251Y232997D02*
X67251Y227008D01*
X71243Y227008D02*
X67251Y232997D01*
X71243Y232997D02*
X71243Y227008D01*
X73696Y227008D02*
X77689Y227008D01*
X73696Y227008D02*
X77689Y231001D01*
X77689Y231999D01*
X76691Y232997D01*
X74694Y232997D01*
X73696Y231999D01*
X110503Y113997D02*
X111501Y112999D01*
X110503Y113997D02*
X108506Y113997D01*
X107508Y112999D01*
X107508Y109006D01*
X108506Y108008D01*
X110503Y108008D01*
X111501Y109006D01*
X113954Y112001D02*
X115950Y113997D01*
X115950Y108008D01*
X113954Y108008D02*
X117946Y108008D01*
X120399Y112999D02*
X121397Y113997D01*
X123394Y113997D01*
X124392Y112999D01*
X124392Y112001D01*
X123394Y111003D01*
X124392Y110004D01*
X124392Y109006D01*
X123394Y108008D01*
X121397Y108008D01*
X120399Y109006D01*
X120399Y110004D01*
X121397Y111003D01*
X120399Y112001D01*
X120399Y112999D01*
X121397Y111003D02*
X123394Y111003D01*
X255003Y243503D02*
X256001Y244501D01*
X255003Y243503D02*
X255003Y241506D01*
X256001Y240508D01*
X256999Y240508D01*
X257997Y241506D01*
X257997Y243503D01*
X258996Y244501D01*
X259994Y244501D01*
X260992Y243503D01*
X260992Y241506D01*
X259994Y240508D01*
X260992Y246954D02*
X255003Y246954D01*
X258996Y248950D02*
X260992Y246954D01*
X258996Y248950D02*
X260992Y250946D01*
X255003Y250946D01*
X255003Y253399D02*
X260992Y253399D01*
X260992Y256394D01*
X259994Y257392D01*
X256001Y257392D01*
X255003Y256394D01*
X255003Y253399D01*
X221001Y266501D02*
X220003Y265503D01*
X220003Y263506D01*
X221001Y262508D01*
X224994Y262508D01*
X225992Y263506D01*
X225992Y265503D01*
X224994Y266501D01*
X225992Y268954D02*
X220003Y268954D01*
X225992Y268954D02*
X225992Y272946D01*
X225992Y275399D02*
X220003Y275399D01*
X223996Y275399D02*
X220003Y279392D01*
X222997Y276397D02*
X225992Y279392D01*
X245992Y264762D02*
X245992Y262766D01*
X245992Y263764D02*
X240003Y263764D01*
X240003Y262766D02*
X240003Y264762D01*
X240003Y268061D02*
X240003Y270057D01*
X240003Y268061D02*
X241001Y267063D01*
X244994Y267063D01*
X245992Y268061D01*
X245992Y270057D01*
X244994Y271055D01*
X241001Y271055D01*
X240003Y270057D01*
X234996Y216172D02*
X231003Y216172D01*
X234996Y216172D02*
X236992Y218168D01*
X234996Y220164D01*
X231003Y220164D01*
X231003Y226610D02*
X236992Y226610D01*
X236992Y223615D01*
X235994Y222617D01*
X233997Y222617D01*
X232999Y223615D01*
X232999Y226610D01*
X231003Y233055D02*
X236992Y233055D01*
X236992Y230061D01*
X235994Y229063D01*
X233997Y229063D01*
X232999Y230061D01*
X232999Y233055D01*
X242001Y220164D02*
X241003Y219166D01*
X241003Y217170D01*
X242001Y216172D01*
X245994Y216172D01*
X246992Y217170D01*
X246992Y219166D01*
X245994Y220164D01*
X243997Y220164D01*
X243997Y218168D01*
X241003Y222617D02*
X246992Y222617D01*
X246992Y226610D02*
X241003Y222617D01*
X241003Y226610D02*
X246992Y226610D01*
X246992Y229063D02*
X241003Y229063D01*
X246992Y229063D02*
X246992Y232057D01*
X245994Y233055D01*
X242001Y233055D01*
X241003Y232057D01*
X241003Y229063D01*
X295003Y152280D02*
X300992Y152280D01*
X295003Y152280D02*
X295003Y155275D01*
X296001Y156273D01*
X297997Y156273D01*
X298996Y155275D01*
X298996Y152280D01*
X298996Y154277D02*
X300992Y156273D01*
X295003Y158726D02*
X295003Y162719D01*
X295003Y158726D02*
X300992Y158726D01*
X300992Y162719D01*
X297997Y160722D02*
X297997Y158726D01*
X295003Y168166D02*
X296001Y169164D01*
X295003Y168166D02*
X295003Y166170D01*
X296001Y165171D01*
X296999Y165171D01*
X297997Y166170D01*
X297997Y168166D01*
X298996Y169164D01*
X299994Y169164D01*
X300992Y168166D01*
X300992Y166170D01*
X299994Y165171D01*
X295003Y171617D02*
X295003Y175610D01*
X295003Y171617D02*
X300992Y171617D01*
X300992Y175610D01*
X297997Y173613D02*
X297997Y171617D01*
X300992Y180059D02*
X295003Y180059D01*
X295003Y182055D02*
X295003Y178062D01*
X322999Y187508D02*
X326992Y187508D01*
X322999Y187508D02*
X321003Y189504D01*
X322999Y191501D01*
X326992Y191501D01*
X323997Y191501D02*
X323997Y187508D01*
X322999Y193954D02*
X326992Y193954D01*
X324996Y193954D02*
X322999Y195950D01*
X322999Y196948D01*
X322999Y199325D02*
X326992Y199325D01*
X322999Y199325D02*
X322999Y200323D01*
X323997Y201321D01*
X326992Y201321D01*
X323997Y201321D02*
X322999Y202319D01*
X323997Y203317D01*
X326992Y203317D01*
X322999Y206768D02*
X322999Y208765D01*
X323997Y209763D01*
X326992Y209763D01*
X326992Y206768D01*
X325994Y205770D01*
X324996Y206768D01*
X324996Y209763D01*
X325994Y213214D02*
X322001Y213214D01*
X325994Y213214D02*
X326992Y214212D01*
X322999Y214212D02*
X322999Y212216D01*
X322999Y216513D02*
X325994Y216513D01*
X326992Y217511D01*
X326992Y220505D01*
X322999Y220505D01*
X322999Y222958D02*
X326992Y222958D01*
X324996Y222958D02*
X322999Y224955D01*
X322999Y225953D01*
X326992Y229328D02*
X326992Y231324D01*
X326992Y229328D02*
X325994Y228330D01*
X323997Y228330D01*
X322999Y229328D01*
X322999Y231324D01*
X323997Y232322D01*
X324996Y232322D01*
X324996Y228330D01*
X325994Y241221D02*
X326992Y242219D01*
X326992Y243217D01*
X325994Y244215D01*
X321003Y244215D01*
X321003Y243217D02*
X321003Y245213D01*
X326992Y248664D02*
X326992Y250661D01*
X325994Y251659D01*
X323997Y251659D01*
X322999Y250661D01*
X322999Y248664D01*
X323997Y247666D01*
X325994Y247666D01*
X326992Y248664D01*
X322999Y254112D02*
X322999Y255110D01*
X326992Y255110D01*
X326992Y254112D02*
X326992Y256108D01*
X321003Y255110D02*
X320005Y255110D01*
X322999Y258409D02*
X326992Y258409D01*
X322999Y258409D02*
X322999Y261403D01*
X323997Y262401D01*
X326992Y262401D01*
X325994Y265852D02*
X322001Y265852D01*
X325994Y265852D02*
X326992Y266850D01*
X322999Y266850D02*
X322999Y264854D01*
X322999Y275597D02*
X326992Y277593D01*
X322999Y279589D01*
X322999Y282042D02*
X321003Y284038D01*
X326992Y284038D01*
X326992Y282042D02*
X326992Y286035D01*
X326992Y288488D02*
X325994Y288488D01*
X325994Y289486D01*
X326992Y289486D01*
X326992Y288488D01*
X322999Y291710D02*
X321003Y293707D01*
X326992Y293707D01*
X326992Y295703D02*
X326992Y291710D01*
D11*
X62000Y150000D02*
X60000Y150000D01*
X62000Y150000D02*
X65000Y153000D01*
X99000Y99000D02*
X94000Y96000D01*
X99000Y99000D02*
X99000Y100000D01*
X81000Y110000D02*
X79000Y110000D01*
X81000Y110000D02*
X83000Y108000D01*
D10*
X202003Y233166D02*
X203001Y234164D01*
X202003Y233166D02*
X202003Y231170D01*
X203001Y230172D01*
X203999Y230172D01*
X204997Y231170D01*
X204997Y233166D01*
X205996Y234164D01*
X206994Y234164D01*
X207992Y233166D01*
X207992Y231170D01*
X206994Y230172D01*
X207992Y236617D02*
X202003Y236617D01*
X207992Y236617D02*
X207992Y239612D01*
X206994Y240610D01*
X203001Y240610D01*
X202003Y239612D01*
X202003Y236617D01*
X203999Y243063D02*
X207992Y243063D01*
X203999Y243063D02*
X202003Y245059D01*
X203999Y247055D01*
X207992Y247055D01*
X204997Y247055D02*
X204997Y243063D01*
X186001Y234164D02*
X185003Y233166D01*
X185003Y231170D01*
X186001Y230172D01*
X186999Y230172D01*
X187997Y231170D01*
X187997Y233166D01*
X188996Y234164D01*
X189994Y234164D01*
X190992Y233166D01*
X190992Y231170D01*
X189994Y230172D01*
X185003Y239612D02*
X186001Y240610D01*
X185003Y239612D02*
X185003Y237615D01*
X186001Y236617D01*
X189994Y236617D01*
X190992Y237615D01*
X190992Y239612D01*
X189994Y240610D01*
X190992Y243063D02*
X185003Y243063D01*
X190992Y243063D02*
X190992Y247055D01*
X310158Y89804D02*
X315345Y86810D01*
X316842Y89403D01*
X316477Y90767D01*
X313019Y92763D01*
X311656Y92398D01*
X310158Y89804D01*
X319067Y93256D02*
X320065Y94985D01*
X319067Y93256D02*
X317703Y92891D01*
X315975Y93889D01*
X315609Y95253D01*
X316607Y96982D01*
X317971Y97347D01*
X318835Y96848D01*
X316839Y93390D01*
X321791Y97974D02*
X323288Y100567D01*
X322923Y101931D01*
X321559Y101565D01*
X320561Y99836D01*
X319197Y99471D01*
X318832Y100835D01*
X320329Y103428D01*
X321556Y105552D02*
X322055Y106417D01*
X325512Y104420D01*
X325013Y103556D02*
X326012Y105285D01*
X320326Y107415D02*
X319461Y107914D01*
X329889Y108008D02*
X330388Y108872D01*
X330023Y110236D01*
X325700Y112731D01*
X324203Y110138D01*
X324569Y108774D01*
X326297Y107776D01*
X327661Y108141D01*
X329158Y110735D01*
X330385Y112859D02*
X326927Y114855D01*
X328424Y117449D01*
X329788Y117814D01*
X332381Y116317D01*
X336830Y124023D02*
X331643Y127017D01*
X336830Y124023D02*
X338327Y126616D01*
X337962Y127980D01*
X336233Y128978D01*
X334870Y128613D01*
X333372Y126019D01*
X336595Y131601D02*
X339188Y130104D01*
X340552Y130469D01*
X342049Y133063D01*
X342914Y132563D02*
X338591Y135059D01*
X342914Y132563D02*
X343279Y131200D01*
X342780Y130335D01*
X322292Y87304D02*
X327479Y84310D01*
X322292Y87304D02*
X324289Y90762D01*
X325884Y87536D02*
X324886Y85807D01*
X329837Y90391D02*
X330702Y89892D01*
X329837Y90391D02*
X330336Y91255D01*
X331201Y90756D01*
X330702Y89892D01*
X331846Y103853D02*
X333210Y104218D01*
X331846Y103853D02*
X330848Y102124D01*
X331214Y100760D01*
X332078Y100261D01*
X333442Y100626D01*
X334440Y102355D01*
X335803Y102721D01*
X336668Y102222D01*
X337033Y100858D01*
X336035Y99129D01*
X334672Y98764D01*
X338393Y105210D02*
X334936Y107207D01*
X338393Y105210D02*
X339757Y105576D01*
X336299Y107572D02*
X335301Y105843D01*
X337449Y109564D02*
X337948Y110429D01*
X341406Y108432D01*
X340907Y107568D02*
X341905Y109297D01*
X336220Y111427D02*
X335355Y111926D01*
X337869Y114284D02*
X338368Y115148D01*
X343555Y112154D01*
X344054Y113018D02*
X343056Y111289D01*
X344340Y115510D02*
X341746Y117007D01*
X344340Y115510D02*
X345703Y115875D01*
X345338Y117239D01*
X346701Y117604D01*
X346336Y118967D01*
X343743Y120465D01*
X348926Y121457D02*
X349924Y123186D01*
X348926Y121457D02*
X347563Y121092D01*
X345834Y122090D01*
X345468Y123453D01*
X346466Y125182D01*
X347830Y125548D01*
X348694Y125048D01*
X346698Y121591D01*
X346463Y129169D02*
X346962Y130033D01*
X352149Y127039D01*
X352648Y127903D02*
X351650Y126174D01*
X348611Y132890D02*
X349111Y133755D01*
X354297Y130760D01*
X353798Y129896D02*
X354796Y131625D01*
D12*
X124720Y147650D02*
X124720Y162350D01*
X97720Y147650D02*
X97407Y147650D01*
X97280Y147777D01*
X97280Y162350D01*
X105780Y162350D02*
X116220Y162350D01*
X106720Y147650D02*
X105780Y147650D01*
X115280Y147650D02*
X116220Y147650D01*
X124280Y147650D02*
X124720Y147650D01*
X124720Y162350D02*
X124280Y162350D01*
X97720Y162350D02*
X97280Y162350D01*
D13*
X95760Y146110D02*
X95760Y135950D01*
D10*
X108553Y164667D02*
X113544Y164667D01*
X114542Y165665D01*
X114542Y167662D01*
X113544Y168660D01*
X108553Y168660D01*
X114542Y171113D02*
X114542Y175105D01*
X114542Y171113D02*
X110549Y175105D01*
X109551Y175105D01*
X108553Y174107D01*
X108553Y172111D01*
X109551Y171113D01*
D14*
X137500Y168500D02*
X137500Y176000D01*
X128500Y176000D01*
X128500Y168500D01*
X128500Y163500D02*
X128500Y156000D01*
X137500Y156000D01*
X137500Y163500D01*
D10*
X129503Y182166D02*
X130501Y183164D01*
X129503Y182166D02*
X129503Y180170D01*
X130501Y179172D01*
X134494Y179172D01*
X135492Y180170D01*
X135492Y182166D01*
X134494Y183164D01*
X131499Y185617D02*
X129503Y187613D01*
X135492Y187613D01*
X135492Y185617D02*
X135492Y189610D01*
X129503Y192063D02*
X129503Y196055D01*
X130501Y196055D01*
X134494Y192063D01*
X135492Y192063D01*
D13*
X92800Y176800D02*
X92800Y164400D01*
X92800Y176800D02*
X79200Y176800D01*
X79200Y164100D01*
X92800Y158000D02*
X92800Y145200D01*
X79100Y145200D01*
X79100Y158000D01*
D10*
X80503Y182503D02*
X81501Y183501D01*
X80503Y182503D02*
X80503Y180506D01*
X81501Y179508D01*
X85494Y179508D01*
X86492Y180506D01*
X86492Y182503D01*
X85494Y183501D01*
X82499Y185954D02*
X80503Y187950D01*
X86492Y187950D01*
X86492Y185954D02*
X86492Y189946D01*
X85494Y192399D02*
X86492Y193397D01*
X86492Y195394D01*
X85494Y196392D01*
X81501Y196392D01*
X80503Y195394D01*
X80503Y193397D01*
X81501Y192399D01*
X82499Y192399D01*
X83497Y193397D01*
X83497Y196392D01*
D13*
X110400Y116200D02*
X122800Y116200D01*
X122800Y129800D01*
X110100Y129800D01*
X104000Y116200D02*
X91200Y116200D01*
X91200Y129900D01*
X104000Y129900D01*
X224200Y127600D02*
X224200Y115200D01*
X237800Y115200D01*
X237800Y127900D01*
X224200Y134000D02*
X224200Y146800D01*
X237900Y146800D01*
X237900Y134000D01*
D10*
X241501Y125501D02*
X240503Y124503D01*
X240503Y122506D01*
X241501Y121508D01*
X245494Y121508D01*
X246492Y122506D01*
X246492Y124503D01*
X245494Y125501D01*
X242499Y127954D02*
X240503Y129950D01*
X246492Y129950D01*
X246492Y127954D02*
X246492Y131946D01*
X240503Y134399D02*
X240503Y138392D01*
X240503Y134399D02*
X243497Y134399D01*
X242499Y136395D01*
X242499Y137394D01*
X243497Y138392D01*
X245494Y138392D01*
X246492Y137394D01*
X246492Y135397D01*
X245494Y134399D01*
D12*
X146236Y111160D02*
X146236Y90840D01*
X159444Y90840D02*
X166556Y90840D01*
X179764Y90840D02*
X179764Y111160D01*
D13*
X176970Y112430D02*
X176970Y120050D01*
D10*
X142844Y98742D02*
X137853Y98742D01*
X142844Y98742D02*
X143842Y99740D01*
X143842Y101737D01*
X142844Y102735D01*
X137853Y102735D01*
X138851Y105188D02*
X137853Y106186D01*
X137853Y108182D01*
X138851Y109180D01*
X139849Y109180D01*
X140847Y108182D01*
X140847Y107184D01*
X140847Y108182D02*
X141846Y109180D01*
X142844Y109180D01*
X143842Y108182D01*
X143842Y106186D01*
X142844Y105188D01*
D14*
X191500Y103000D02*
X191500Y95500D01*
X191500Y103000D02*
X182500Y103000D01*
X182500Y95500D01*
X182500Y90500D02*
X182500Y83000D01*
X191500Y83000D01*
X191500Y90500D01*
D10*
X190492Y70508D02*
X184503Y70508D01*
X184503Y73503D01*
X185501Y74501D01*
X187497Y74501D01*
X188496Y73503D01*
X188496Y70508D01*
X188496Y72504D02*
X190492Y74501D01*
X186499Y76954D02*
X184503Y78950D01*
X190492Y78950D01*
X190492Y76954D02*
X190492Y80946D01*
D14*
X194500Y105500D02*
X202000Y105500D01*
X202000Y114500D01*
X194500Y114500D01*
X189500Y114500D02*
X182000Y114500D01*
X182000Y105500D01*
X189500Y105500D01*
D10*
X186617Y116508D02*
X186617Y122497D01*
X189612Y122497D01*
X190610Y121499D01*
X190610Y119503D01*
X189612Y118504D01*
X186617Y118504D01*
X188613Y118504D02*
X190610Y116508D01*
X193063Y116508D02*
X197055Y116508D01*
X193063Y116508D02*
X197055Y120501D01*
X197055Y121499D01*
X196057Y122497D01*
X194061Y122497D01*
X193063Y121499D01*
D12*
X207890Y101890D02*
X207890Y96810D01*
D13*
X205000Y96000D02*
X205000Y104000D01*
X193000Y104000D01*
X193000Y96000D01*
X193000Y90000D02*
X193000Y82000D01*
X205000Y82000D01*
X205000Y90000D01*
D10*
X202142Y62742D02*
X196153Y62742D01*
X202142Y62742D02*
X202142Y66735D01*
X202142Y69188D02*
X196153Y69188D01*
X202142Y69188D02*
X202142Y72182D01*
X201144Y73180D01*
X197151Y73180D01*
X196153Y72182D01*
X196153Y69188D01*
X202142Y75633D02*
X202142Y79626D01*
X202142Y75633D02*
X198149Y79626D01*
X197151Y79626D01*
X196153Y78628D01*
X196153Y76631D01*
X197151Y75633D01*
D13*
X158600Y142800D02*
X146200Y142800D01*
X146200Y129200D01*
X158900Y129200D01*
X165000Y142800D02*
X177800Y142800D01*
X177800Y129100D01*
X165000Y129100D01*
D10*
X152501Y150499D02*
X151503Y151497D01*
X149506Y151497D01*
X148508Y150499D01*
X148508Y146506D01*
X149506Y145508D01*
X151503Y145508D01*
X152501Y146506D01*
X154954Y149501D02*
X156950Y151497D01*
X156950Y145508D01*
X154954Y145508D02*
X158946Y145508D01*
X161399Y150499D02*
X162397Y151497D01*
X164394Y151497D01*
X165392Y150499D01*
X165392Y149501D01*
X164394Y148503D01*
X163395Y148503D01*
X164394Y148503D02*
X165392Y147504D01*
X165392Y146506D01*
X164394Y145508D01*
X162397Y145508D01*
X161399Y146506D01*
D13*
X158600Y72800D02*
X146200Y72800D01*
X146200Y59200D01*
X158900Y59200D01*
X165000Y72800D02*
X177800Y72800D01*
X177800Y59100D01*
X165000Y59100D01*
D10*
X157503Y50497D02*
X158501Y49499D01*
X157503Y50497D02*
X155506Y50497D01*
X154508Y49499D01*
X154508Y45506D01*
X155506Y44508D01*
X157503Y44508D01*
X158501Y45506D01*
X160954Y48501D02*
X162950Y50497D01*
X162950Y44508D01*
X160954Y44508D02*
X164946Y44508D01*
X170394Y44508D02*
X170394Y50497D01*
X167399Y47503D01*
X171392Y47503D01*
D13*
X47300Y252000D02*
X47300Y257080D01*
X51110Y246920D02*
X68890Y246920D01*
D10*
X51109Y245215D02*
X51109Y239226D01*
X55101Y239226D01*
X57554Y239226D02*
X57554Y245215D01*
X57554Y239226D02*
X60549Y239226D01*
X61547Y240224D01*
X61547Y244217D01*
X60549Y245215D01*
X57554Y245215D01*
X64000Y243219D02*
X65996Y245215D01*
X65996Y239226D01*
X64000Y239226D02*
X67992Y239226D01*
D14*
X60500Y260000D02*
X60500Y267500D01*
X60500Y260000D02*
X69500Y260000D01*
X69500Y267500D01*
X69500Y272500D02*
X69500Y280000D01*
X60500Y280000D01*
X60500Y272500D01*
D10*
X58492Y266508D02*
X52503Y266508D01*
X52503Y269503D01*
X53501Y270501D01*
X55497Y270501D01*
X56496Y269503D01*
X56496Y266508D01*
X56496Y268504D02*
X58492Y270501D01*
X58492Y275948D02*
X52503Y275948D01*
X55497Y272954D01*
X55497Y276946D01*
D14*
X80500Y276000D02*
X80500Y283500D01*
X80500Y276000D02*
X89500Y276000D01*
X89500Y283500D01*
X89500Y288500D02*
X89500Y296000D01*
X80500Y296000D01*
X80500Y288500D01*
D10*
X81503Y263508D02*
X87492Y263508D01*
X81503Y263508D02*
X81503Y266503D01*
X82501Y267501D01*
X84497Y267501D01*
X85496Y266503D01*
X85496Y263508D01*
X85496Y265504D02*
X87492Y267501D01*
X82501Y269954D02*
X81503Y270952D01*
X81503Y272948D01*
X82501Y273946D01*
X83499Y273946D01*
X84497Y272948D01*
X84497Y271950D01*
X84497Y272948D02*
X85496Y273946D01*
X86494Y273946D01*
X87492Y272948D01*
X87492Y270952D01*
X86494Y269954D01*
D14*
X70500Y268000D02*
X70500Y275500D01*
X70500Y268000D02*
X79500Y268000D01*
X79500Y275500D01*
X79500Y280500D02*
X79500Y288000D01*
X70500Y288000D01*
X70500Y280500D01*
D10*
X72503Y255617D02*
X78492Y255617D01*
X72503Y255617D02*
X72503Y258612D01*
X73501Y259610D01*
X75497Y259610D01*
X76496Y258612D01*
X76496Y255617D01*
X76496Y257613D02*
X78492Y259610D01*
X72503Y262063D02*
X72503Y266055D01*
X72503Y262063D02*
X75497Y262063D01*
X74499Y264059D01*
X74499Y265057D01*
X75497Y266055D01*
X77494Y266055D01*
X78492Y265057D01*
X78492Y263061D01*
X77494Y262063D01*
D12*
X289272Y181732D02*
X289272Y152268D01*
X276064Y192400D02*
X267936Y192400D01*
X254728Y181732D02*
X254728Y152268D01*
X267936Y141600D02*
X276064Y141600D01*
D13*
X264380Y137790D02*
X258030Y137790D01*
D10*
X268453Y163737D02*
X269451Y164735D01*
X268453Y163737D02*
X268453Y161740D01*
X269451Y160742D01*
X270449Y160742D01*
X271447Y161740D01*
X271447Y163737D01*
X272446Y164735D01*
X273444Y164735D01*
X274442Y163737D01*
X274442Y161740D01*
X273444Y160742D01*
X274442Y167188D02*
X268453Y167188D01*
X272446Y169184D02*
X274442Y167188D01*
X272446Y169184D02*
X274442Y171180D01*
X268453Y171180D01*
X270449Y173633D02*
X268453Y175629D01*
X274442Y175629D01*
X274442Y173633D02*
X274442Y177626D01*
D12*
X209652Y183236D02*
X190348Y183236D01*
X190348Y216764D02*
X209652Y216764D01*
D13*
X191110Y213970D02*
X183490Y213970D01*
D10*
X195442Y180547D02*
X195442Y175556D01*
X196440Y174558D01*
X198437Y174558D01*
X199435Y175556D01*
X199435Y180547D01*
X204882Y180547D02*
X204882Y174558D01*
X201888Y177553D02*
X204882Y180547D01*
X205880Y177553D02*
X201888Y177553D01*
D13*
X235712Y183716D02*
X235712Y191930D01*
X235712Y183716D02*
X246288Y183716D01*
X246288Y192230D01*
X246288Y197970D02*
X246288Y206284D01*
X235712Y206284D01*
X235712Y197970D01*
D10*
X239201Y167501D02*
X238203Y166503D01*
X238203Y164506D01*
X239201Y163508D01*
X243194Y163508D01*
X244192Y164506D01*
X244192Y166503D01*
X243194Y167501D01*
X244192Y169954D02*
X244192Y173946D01*
X244192Y169954D02*
X240199Y173946D01*
X239201Y173946D01*
X238203Y172948D01*
X238203Y170952D01*
X239201Y169954D01*
X239201Y176399D02*
X243194Y176399D01*
X239201Y176399D02*
X238203Y177397D01*
X238203Y179394D01*
X239201Y180392D01*
X243194Y180392D01*
X244192Y179394D01*
X244192Y177397D01*
X243194Y176399D01*
X239201Y180392D01*
D13*
X222712Y183716D02*
X222712Y191930D01*
X222712Y183716D02*
X233288Y183716D01*
X233288Y192230D01*
X233288Y197970D02*
X233288Y206284D01*
X222712Y206284D01*
X222712Y197970D01*
D10*
X225201Y168501D02*
X224203Y167503D01*
X224203Y165506D01*
X225201Y164508D01*
X229194Y164508D01*
X230192Y165506D01*
X230192Y167503D01*
X229194Y168501D01*
X230192Y170954D02*
X230192Y174946D01*
X230192Y170954D02*
X226199Y174946D01*
X225201Y174946D01*
X224203Y173948D01*
X224203Y171952D01*
X225201Y170954D01*
X226199Y177399D02*
X224203Y179395D01*
X230192Y179395D01*
X230192Y177399D02*
X230192Y181392D01*
D14*
X192000Y218500D02*
X184500Y218500D01*
X192000Y218500D02*
X192000Y227500D01*
X184500Y227500D01*
X179500Y227500D02*
X172000Y227500D01*
X172000Y218500D01*
X179500Y218500D01*
D10*
X164282Y228412D02*
X164282Y233496D01*
X166824Y233496D01*
X167671Y232649D01*
X167671Y230954D01*
X166824Y230107D01*
X164282Y230107D01*
X165977Y230107D02*
X167671Y228412D01*
X169895Y233496D02*
X173284Y233496D01*
X173284Y232649D01*
X169895Y229259D01*
X169895Y228412D01*
D14*
X201000Y227500D02*
X208500Y227500D01*
X201000Y227500D02*
X201000Y218500D01*
X208500Y218500D01*
X213500Y218500D02*
X221000Y218500D01*
X221000Y227500D01*
X213500Y227500D01*
D10*
X213508Y229508D02*
X213508Y234592D01*
X216050Y234592D01*
X216898Y233745D01*
X216898Y232050D01*
X216050Y231203D01*
X213508Y231203D01*
X215203Y231203D02*
X216898Y229508D01*
X220816Y233745D02*
X222511Y234592D01*
X220816Y233745D02*
X219121Y232050D01*
X219121Y230355D01*
X219968Y229508D01*
X221663Y229508D01*
X222511Y230355D01*
X222511Y231203D01*
X221663Y232050D01*
X219121Y232050D01*
D13*
X252590Y237220D02*
X252590Y260080D01*
X-423887Y-1955212D02*
X-420471Y-1958627D01*
X-423887Y-1955212D02*
X-422179Y-1953504D01*
X-421041Y-1953504D01*
X-419902Y-1954643D01*
X-419902Y-1955781D01*
X-421610Y-1957489D01*
X-418779Y-1952381D02*
X-418779Y-1950104D01*
X-415364Y-1953520D01*
X-416502Y-1954658D02*
X-414225Y-1952381D01*
D12*
X232545Y30138D02*
X241768Y34439D01*
X303206Y62965D02*
X308099Y65246D01*
X303698Y74684D01*
X228191Y39475D02*
X232545Y30138D01*
X236099Y78491D02*
X230183Y91179D01*
D10*
X297429Y104168D02*
X297912Y105495D01*
X297490Y106399D01*
X296164Y106882D01*
X291641Y104773D01*
X291219Y105677D02*
X292062Y103868D01*
X291991Y108744D02*
X289338Y109710D01*
X294766Y112241D01*
X293923Y114050D02*
X295610Y110431D01*
D11*
X215500Y353150D02*
X210500Y353150D01*
X210500Y348150D01*
X235500Y327150D02*
X240500Y327150D01*
X240500Y332150D01*
X210500Y332150D02*
X210500Y327150D01*
X215500Y327150D01*
D13*
X229310Y351580D02*
X236930Y351580D01*
D10*
X229342Y359001D02*
X223353Y355008D01*
X223353Y359001D02*
X229342Y355008D01*
X225349Y361454D02*
X223353Y363450D01*
X229342Y363450D01*
X229342Y361454D02*
X229342Y365446D01*
D14*
X226000Y290900D02*
X218500Y290900D01*
X218500Y281900D01*
X226000Y281900D01*
X231000Y281900D02*
X238500Y281900D01*
X238500Y290900D01*
X231000Y290900D01*
D10*
X220008Y293908D02*
X220008Y299897D01*
X220008Y293908D02*
X224001Y293908D01*
X226454Y297901D02*
X228450Y299897D01*
X228450Y293908D01*
X226454Y293908D02*
X230446Y293908D01*
D14*
X200000Y330150D02*
X200000Y337650D01*
X200000Y330150D02*
X209000Y330150D01*
X209000Y337650D01*
X209000Y342650D02*
X209000Y350150D01*
X200000Y350150D01*
X200000Y342650D01*
D10*
X206003Y359653D02*
X207001Y360651D01*
X206003Y359653D02*
X206003Y357656D01*
X207001Y356658D01*
X210994Y356658D01*
X211992Y357656D01*
X211992Y359653D01*
X210994Y360651D01*
X211992Y363104D02*
X211992Y367096D01*
X211992Y363104D02*
X207999Y367096D01*
X207001Y367096D01*
X206003Y366098D01*
X206003Y364102D01*
X207001Y363104D01*
D14*
X250970Y350640D02*
X250970Y343140D01*
X250970Y350640D02*
X241970Y350640D01*
X241970Y343140D01*
X241970Y338140D02*
X241970Y330640D01*
X250970Y330640D01*
X250970Y338140D01*
D10*
X252973Y339143D02*
X253971Y340141D01*
X252973Y339143D02*
X252973Y337146D01*
X253971Y336148D01*
X257964Y336148D01*
X258962Y337146D01*
X258962Y339143D01*
X257964Y340141D01*
X254969Y342594D02*
X252973Y344590D01*
X258962Y344590D01*
X258962Y342594D02*
X258962Y346586D01*
D14*
X208000Y289400D02*
X208000Y281900D01*
X217000Y281900D01*
X217000Y289400D01*
X217000Y294400D02*
X217000Y301900D01*
X208000Y301900D01*
X208000Y294400D01*
D10*
X205001Y268401D02*
X204003Y267403D01*
X204003Y265406D01*
X205001Y264408D01*
X208994Y264408D01*
X209992Y265406D01*
X209992Y267403D01*
X208994Y268401D01*
X205001Y270854D02*
X204003Y271852D01*
X204003Y273848D01*
X205001Y274846D01*
X205999Y274846D01*
X206997Y273848D01*
X206997Y272850D01*
X206997Y273848D02*
X207996Y274846D01*
X208994Y274846D01*
X209992Y273848D01*
X209992Y271852D01*
X208994Y270854D01*
D14*
X139500Y313400D02*
X132000Y313400D01*
X139500Y313400D02*
X139500Y322400D01*
X132000Y322400D01*
X127000Y322400D02*
X119500Y322400D01*
X119500Y313400D01*
X127000Y313400D01*
D10*
X127003Y311397D02*
X128001Y310399D01*
X127003Y311397D02*
X125006Y311397D01*
X124008Y310399D01*
X124008Y306406D01*
X125006Y305408D01*
X127003Y305408D01*
X128001Y306406D01*
X133448Y305408D02*
X133448Y311397D01*
X130454Y308403D01*
X134446Y308403D01*
D14*
X159750Y264900D02*
X159750Y257400D01*
X159750Y264900D02*
X150750Y264900D01*
X150750Y257400D01*
X150750Y252400D02*
X150750Y244900D01*
X159750Y244900D01*
X159750Y252400D01*
D10*
X161753Y250512D02*
X162751Y251510D01*
X161753Y250512D02*
X161753Y248515D01*
X162751Y247517D01*
X166744Y247517D01*
X167742Y248515D01*
X167742Y250512D01*
X166744Y251510D01*
X161753Y253963D02*
X161753Y257955D01*
X161753Y253963D02*
X164747Y253963D01*
X163749Y255959D01*
X163749Y256957D01*
X164747Y257955D01*
X166744Y257955D01*
X167742Y256957D01*
X167742Y254961D01*
X166744Y253963D01*
D14*
X189000Y330150D02*
X189000Y337650D01*
X189000Y330150D02*
X198000Y330150D01*
X198000Y337650D01*
X198000Y342650D02*
X198000Y350150D01*
X189000Y350150D01*
X189000Y342650D01*
D10*
X181460Y357999D02*
X180462Y358997D01*
X178465Y358997D01*
X177467Y357999D01*
X177467Y354006D01*
X178465Y353008D01*
X180462Y353008D01*
X181460Y354006D01*
X183913Y357999D02*
X184911Y358997D01*
X186907Y358997D01*
X187905Y357999D01*
X187905Y357001D01*
X186907Y356003D01*
X187905Y355004D01*
X187905Y354006D01*
X186907Y353008D01*
X184911Y353008D01*
X183913Y354006D01*
X183913Y355004D01*
X184911Y356003D01*
X183913Y357001D01*
X183913Y357999D01*
X184911Y356003D02*
X186907Y356003D01*
D14*
X209750Y314400D02*
X217250Y314400D01*
X209750Y314400D02*
X209750Y305400D01*
X217250Y305400D01*
X222250Y305400D02*
X229750Y305400D01*
X229750Y314400D01*
X222250Y314400D01*
D10*
X242253Y312397D02*
X243251Y311399D01*
X242253Y312397D02*
X240256Y312397D01*
X239258Y311399D01*
X239258Y307406D01*
X240256Y306408D01*
X242253Y306408D01*
X243251Y307406D01*
X247700Y311399D02*
X249696Y312397D01*
X247700Y311399D02*
X245704Y309403D01*
X245704Y307406D01*
X246702Y306408D01*
X248698Y306408D01*
X249696Y307406D01*
X249696Y308404D01*
X248698Y309403D01*
X245704Y309403D01*
D14*
X217250Y325650D02*
X209750Y325650D01*
X209750Y316650D01*
X217250Y316650D01*
X222250Y316650D02*
X229750Y316650D01*
X229750Y325650D01*
X222250Y325650D01*
D10*
X242253Y321647D02*
X243251Y320649D01*
X242253Y321647D02*
X240256Y321647D01*
X239258Y320649D01*
X239258Y316656D01*
X240256Y315658D01*
X242253Y315658D01*
X243251Y316656D01*
X245704Y321647D02*
X249696Y321647D01*
X249696Y320649D01*
X245704Y316656D01*
X245704Y315658D01*
D13*
X140300Y324100D02*
X127900Y324100D01*
X140300Y324100D02*
X140300Y337700D01*
X127600Y337700D01*
X121500Y324100D02*
X108700Y324100D01*
X108700Y337800D01*
X121500Y337800D01*
D10*
X129110Y345399D02*
X128112Y346397D01*
X126115Y346397D01*
X125117Y345399D01*
X125117Y341406D01*
X126115Y340408D01*
X128112Y340408D01*
X129110Y341406D01*
X131563Y341406D02*
X132561Y340408D01*
X134557Y340408D01*
X135555Y341406D01*
X135555Y345399D01*
X134557Y346397D01*
X132561Y346397D01*
X131563Y345399D01*
X131563Y344401D01*
X132561Y343403D01*
X135555Y343403D01*
D13*
X154700Y339500D02*
X154700Y327100D01*
X168300Y327100D01*
X168300Y339800D01*
X154700Y345900D02*
X154700Y358700D01*
X168400Y358700D01*
X168400Y345900D01*
D10*
X147001Y339401D02*
X146003Y338403D01*
X146003Y336406D01*
X147001Y335408D01*
X150994Y335408D01*
X151992Y336406D01*
X151992Y338403D01*
X150994Y339401D01*
X147999Y341854D02*
X146003Y343850D01*
X151992Y343850D01*
X151992Y341854D02*
X151992Y345846D01*
X150994Y348299D02*
X147001Y348299D01*
X146003Y349297D01*
X146003Y351294D01*
X147001Y352292D01*
X150994Y352292D01*
X151992Y351294D01*
X151992Y349297D01*
X150994Y348299D01*
X147001Y352292D01*
D11*
X98500Y287900D02*
X98500Y277900D01*
X114500Y277900D02*
X114500Y287900D01*
D10*
X119003Y278408D02*
X124992Y282401D01*
X124992Y278408D02*
X119003Y282401D01*
X124992Y284854D02*
X124992Y288846D01*
X124992Y284854D02*
X120999Y288846D01*
X120001Y288846D01*
X119003Y287848D01*
X119003Y285852D01*
X120001Y284854D01*
D14*
X104000Y313400D02*
X96500Y313400D01*
X96500Y304400D01*
X104000Y304400D01*
X109000Y304400D02*
X116500Y304400D01*
X116500Y313400D01*
X109000Y313400D01*
D10*
X89601Y307664D02*
X88603Y306666D01*
X88603Y304670D01*
X89601Y303672D01*
X93594Y303672D01*
X94592Y304670D01*
X94592Y306666D01*
X93594Y307664D01*
X90599Y310117D02*
X88603Y312113D01*
X94592Y312113D01*
X94592Y310117D02*
X94592Y314110D01*
X90599Y316563D02*
X88603Y318559D01*
X94592Y318559D01*
X94592Y316563D02*
X94592Y320555D01*
D14*
X96500Y261400D02*
X104000Y261400D01*
X96500Y261400D02*
X96500Y252400D01*
X104000Y252400D01*
X109000Y252400D02*
X116500Y252400D01*
X116500Y261400D01*
X109000Y261400D01*
D10*
X100666Y250397D02*
X101664Y249399D01*
X100666Y250397D02*
X98670Y250397D01*
X97672Y249399D01*
X97672Y245406D01*
X98670Y244408D01*
X100666Y244408D01*
X101664Y245406D01*
X104117Y248401D02*
X106113Y250397D01*
X106113Y244408D01*
X104117Y244408D02*
X108110Y244408D01*
X110563Y244408D02*
X114555Y244408D01*
X110563Y244408D02*
X114555Y248401D01*
X114555Y249399D01*
X113557Y250397D01*
X111561Y250397D01*
X110563Y249399D01*
D13*
X147500Y269900D02*
X147500Y275900D01*
X147500Y269900D02*
X153500Y269900D01*
X195500Y269900D02*
X201500Y269900D01*
X201500Y275900D01*
X201500Y317900D02*
X201500Y323900D01*
X195500Y323900D01*
X152910Y318490D02*
X145290Y318490D01*
D10*
X144594Y267008D02*
X139603Y267008D01*
X144594Y267008D02*
X145592Y268006D01*
X145592Y270003D01*
X144594Y271001D01*
X139603Y271001D01*
X141599Y273454D02*
X139603Y275450D01*
X145592Y275450D01*
X145592Y273454D02*
X145592Y277446D01*
D13*
X224070Y102712D02*
X232284Y102712D01*
X232284Y113288D01*
X223770Y113288D01*
X218030Y113288D02*
X209716Y113288D01*
X209716Y102712D01*
X218030Y102712D01*
D10*
X235172Y106508D02*
X235172Y112497D01*
X239164Y112497D01*
X237168Y109503D02*
X235172Y109503D01*
X241617Y106508D02*
X241617Y112497D01*
X244612Y112497D01*
X245610Y111499D01*
X245610Y110501D01*
X244612Y109503D01*
X245610Y108504D01*
X245610Y107506D01*
X244612Y106508D01*
X241617Y106508D01*
X241617Y109503D02*
X244612Y109503D01*
X248063Y110501D02*
X250059Y112497D01*
X250059Y106508D01*
X248063Y106508D02*
X252055Y106508D01*
D13*
X252538Y118024D02*
X259983Y121495D01*
X252538Y118024D02*
X257008Y108439D01*
X264724Y112037D01*
X269927Y114463D02*
X277462Y117976D01*
X272992Y127561D01*
X265457Y124048D01*
D10*
X253956Y121512D02*
X251425Y126940D01*
X255044Y128627D01*
X254500Y125070D02*
X252691Y124226D01*
X259798Y124236D02*
X257267Y129664D01*
X259981Y130929D01*
X261307Y130447D01*
X261729Y129542D01*
X261246Y128215D01*
X262573Y127733D01*
X262995Y126828D01*
X262512Y125501D01*
X259798Y124236D01*
X258532Y126950D02*
X261246Y128215D01*
X265640Y126960D02*
X269258Y128647D01*
X265640Y126960D02*
X267571Y132266D01*
X267149Y133171D01*
X265822Y133653D01*
X264013Y132810D01*
X263530Y131483D01*
D15*
X348000Y165000D02*
X348000Y175000D01*
D14*
X355500Y167500D02*
X360500Y172500D01*
X360500Y160000D02*
X355500Y160000D01*
X355500Y152500D02*
X360500Y147500D01*
X348000Y147500D02*
X348000Y152500D01*
X338000Y152500D02*
X338000Y147500D01*
X338000Y167500D02*
X338000Y172500D01*
X330500Y172500D02*
X325500Y167500D01*
X325500Y180000D02*
X330500Y180000D01*
X271000Y196500D02*
X263500Y196500D01*
X271000Y196500D02*
X271000Y205500D01*
X263500Y205500D01*
X258500Y205500D02*
X251000Y205500D01*
X251000Y196500D01*
X258500Y196500D01*
D10*
X255617Y207508D02*
X255617Y213497D01*
X258612Y213497D01*
X259610Y212499D01*
X259610Y210503D01*
X258612Y209504D01*
X255617Y209504D01*
X257613Y209504D02*
X259610Y207508D01*
X262063Y212499D02*
X263061Y213497D01*
X265057Y213497D01*
X266055Y212499D01*
X266055Y211501D01*
X265057Y210503D01*
X266055Y209504D01*
X266055Y208506D01*
X265057Y207508D01*
X263061Y207508D01*
X262063Y208506D01*
X262063Y209504D01*
X263061Y210503D01*
X262063Y211501D01*
X262063Y212499D01*
X263061Y210503D02*
X265057Y210503D01*
D13*
X208200Y127600D02*
X208200Y115200D01*
X221800Y115200D01*
X221800Y127900D01*
X208200Y134000D02*
X208200Y146800D01*
X221900Y146800D01*
X221900Y134000D01*
D10*
X200501Y146501D02*
X199503Y145503D01*
X199503Y143506D01*
X200501Y142508D01*
X204494Y142508D01*
X205492Y143506D01*
X205492Y145503D01*
X204494Y146501D01*
X201499Y148954D02*
X199503Y150950D01*
X205492Y150950D01*
X205492Y148954D02*
X205492Y152946D01*
X200501Y157395D02*
X199503Y159392D01*
X200501Y157395D02*
X202497Y155399D01*
X204494Y155399D01*
X205492Y156397D01*
X205492Y158394D01*
X204494Y159392D01*
X203496Y159392D01*
X202497Y158394D01*
X202497Y155399D01*
M02*
