G04 EAGLE Gerber RS-274X export*
G75*
%MOMM*%
%FSLAX34Y34*%
%LPD*%
%INSolderpaste Top*%
%IPPOS*%
%AMOC8*
5,1,8,0,0,1.08239X$1,22.5*%
G01*
%ADD10R,0.550000X1.200000*%
%ADD11R,0.600000X0.600000*%
%ADD12R,0.900000X1.050000*%
%ADD13R,1.050000X0.900000*%
%ADD14R,0.508000X1.309600*%
%ADD15R,0.812800X0.660400*%
%ADD16R,0.711200X0.279400*%
%ADD17R,0.660400X1.041400*%
%ADD18R,0.794500X0.507200*%
%ADD19R,0.700000X0.700000*%
%ADD20R,0.406400X1.346200*%
%ADD21R,2.108200X1.600200*%
%ADD22R,1.803400X1.905000*%
%ADD23R,1.905000X1.905000*%
%ADD24R,0.950000X0.850000*%
%ADD25R,1.800000X1.000000*%
%ADD26C,0.150000*%
%ADD27R,3.650000X3.650000*%
%ADD28R,0.700000X0.700000*%


D10*
X101500Y142000D03*
X111000Y142000D03*
X120500Y142000D03*
X120500Y168000D03*
X101500Y168000D03*
D11*
X133000Y171500D03*
X133000Y160500D03*
D12*
X86000Y169000D03*
X86000Y153000D03*
D13*
X115000Y123000D03*
X99000Y123000D03*
D12*
X231000Y123000D03*
X231000Y139000D03*
D14*
X172500Y113954D03*
X163000Y113954D03*
X153500Y113954D03*
X153500Y88046D03*
X172500Y88046D03*
D11*
X187000Y98500D03*
X187000Y87500D03*
X197500Y110000D03*
X186500Y110000D03*
D15*
X199000Y98969D03*
X199000Y87031D03*
D13*
X154000Y136000D03*
X170000Y136000D03*
X154000Y66000D03*
X170000Y66000D03*
D16*
X53269Y254375D03*
X53269Y249625D03*
X66731Y249625D03*
X66731Y254375D03*
D11*
X65000Y264500D03*
X65000Y275500D03*
X85000Y280500D03*
X85000Y291500D03*
X75000Y272500D03*
X75000Y283500D03*
D17*
X261250Y146250D03*
X282750Y146250D03*
X282750Y187750D03*
X261250Y187750D03*
D18*
X187519Y209500D03*
X187519Y200000D03*
X187519Y190500D03*
X212482Y190500D03*
X212482Y200000D03*
X212482Y209500D03*
D19*
X241000Y189000D03*
X241000Y201000D03*
X228000Y189000D03*
X228000Y201000D03*
D11*
X187500Y223000D03*
X176500Y223000D03*
X205500Y223000D03*
X216500Y223000D03*
D20*
G36*
X242342Y81742D02*
X238659Y80024D01*
X232970Y92224D01*
X236653Y93942D01*
X242342Y81742D01*
G37*
G36*
X248233Y84489D02*
X244550Y82771D01*
X238861Y94971D01*
X242544Y96689D01*
X248233Y84489D01*
G37*
G36*
X254124Y87236D02*
X250441Y85518D01*
X244752Y97718D01*
X248435Y99436D01*
X254124Y87236D01*
G37*
G36*
X260015Y89983D02*
X256332Y88265D01*
X250643Y100465D01*
X254326Y102183D01*
X260015Y89983D01*
G37*
G36*
X265906Y92730D02*
X262223Y91012D01*
X256534Y103212D01*
X260217Y104930D01*
X265906Y92730D01*
G37*
D21*
G36*
X224667Y91177D02*
X233577Y72071D01*
X219075Y65309D01*
X210165Y84415D01*
X224667Y91177D01*
G37*
G36*
X280858Y117380D02*
X289768Y98274D01*
X275266Y91512D01*
X266356Y110618D01*
X280858Y117380D01*
G37*
D22*
G36*
X231125Y64371D02*
X238747Y48028D01*
X221483Y39977D01*
X213861Y56320D01*
X231125Y64371D01*
G37*
G36*
X300004Y96490D02*
X307626Y80147D01*
X290362Y72096D01*
X282740Y88439D01*
X300004Y96490D01*
G37*
D23*
G36*
X254475Y75820D02*
X262526Y58555D01*
X245261Y50504D01*
X237210Y67769D01*
X254475Y75820D01*
G37*
G36*
X276226Y85963D02*
X284277Y68698D01*
X267012Y60647D01*
X258961Y77912D01*
X276226Y85963D01*
G37*
D24*
X232750Y345900D03*
X218250Y345900D03*
X218250Y334400D03*
X232750Y334400D03*
D11*
X223000Y286400D03*
X234000Y286400D03*
X204500Y334650D03*
X204500Y345650D03*
X246470Y346140D03*
X246470Y335140D03*
X212500Y286400D03*
X212500Y297400D03*
X135000Y317900D03*
X124000Y317900D03*
X155250Y260400D03*
X155250Y249400D03*
X193500Y334650D03*
X193500Y345650D03*
X214250Y309900D03*
X225250Y309900D03*
X214250Y321150D03*
X225250Y321150D03*
D13*
X132500Y330900D03*
X116500Y330900D03*
D12*
X161500Y334900D03*
X161500Y350900D03*
D25*
X106500Y295400D03*
X106500Y270400D03*
D11*
X101000Y308900D03*
X112000Y308900D03*
X101000Y256900D03*
X112000Y256900D03*
D26*
X146500Y313650D02*
X146500Y315150D01*
X153500Y315150D01*
X153500Y313650D01*
X146500Y313650D01*
X146500Y315075D02*
X153500Y315075D01*
X153500Y310150D02*
X153500Y308650D01*
X146500Y308650D01*
X146500Y310150D01*
X153500Y310150D01*
X153500Y310075D02*
X146500Y310075D01*
X153500Y305150D02*
X153500Y303650D01*
X146500Y303650D01*
X146500Y305150D01*
X153500Y305150D01*
X153500Y305075D02*
X146500Y305075D01*
X153500Y300150D02*
X153500Y298650D01*
X146500Y298650D01*
X146500Y300150D01*
X153500Y300150D01*
X153500Y300075D02*
X146500Y300075D01*
X153500Y295150D02*
X153500Y293650D01*
X146500Y293650D01*
X146500Y295150D01*
X153500Y295150D01*
X153500Y295075D02*
X146500Y295075D01*
X153500Y290150D02*
X153500Y288650D01*
X146500Y288650D01*
X146500Y290150D01*
X153500Y290150D01*
X153500Y290075D02*
X146500Y290075D01*
X153500Y285150D02*
X153500Y283650D01*
X146500Y283650D01*
X146500Y285150D01*
X153500Y285150D01*
X153500Y285075D02*
X146500Y285075D01*
X153500Y280150D02*
X153500Y278650D01*
X146500Y278650D01*
X146500Y280150D01*
X153500Y280150D01*
X153500Y280075D02*
X146500Y280075D01*
X156250Y275900D02*
X157750Y275900D01*
X157750Y268900D01*
X156250Y268900D01*
X156250Y275900D01*
X156250Y270325D02*
X157750Y270325D01*
X157750Y271750D02*
X156250Y271750D01*
X156250Y273175D02*
X157750Y273175D01*
X157750Y274600D02*
X156250Y274600D01*
X161250Y275900D02*
X162750Y275900D01*
X162750Y268900D01*
X161250Y268900D01*
X161250Y275900D01*
X161250Y270325D02*
X162750Y270325D01*
X162750Y271750D02*
X161250Y271750D01*
X161250Y273175D02*
X162750Y273175D01*
X162750Y274600D02*
X161250Y274600D01*
X166250Y275900D02*
X167750Y275900D01*
X167750Y268900D01*
X166250Y268900D01*
X166250Y275900D01*
X166250Y270325D02*
X167750Y270325D01*
X167750Y271750D02*
X166250Y271750D01*
X166250Y273175D02*
X167750Y273175D01*
X167750Y274600D02*
X166250Y274600D01*
X171250Y275900D02*
X172750Y275900D01*
X172750Y268900D01*
X171250Y268900D01*
X171250Y275900D01*
X171250Y270325D02*
X172750Y270325D01*
X172750Y271750D02*
X171250Y271750D01*
X171250Y273175D02*
X172750Y273175D01*
X172750Y274600D02*
X171250Y274600D01*
X176250Y275900D02*
X177750Y275900D01*
X177750Y268900D01*
X176250Y268900D01*
X176250Y275900D01*
X176250Y270325D02*
X177750Y270325D01*
X177750Y271750D02*
X176250Y271750D01*
X176250Y273175D02*
X177750Y273175D01*
X177750Y274600D02*
X176250Y274600D01*
X181250Y275900D02*
X182750Y275900D01*
X182750Y268900D01*
X181250Y268900D01*
X181250Y275900D01*
X181250Y270325D02*
X182750Y270325D01*
X182750Y271750D02*
X181250Y271750D01*
X181250Y273175D02*
X182750Y273175D01*
X182750Y274600D02*
X181250Y274600D01*
X186250Y275900D02*
X187750Y275900D01*
X187750Y268900D01*
X186250Y268900D01*
X186250Y275900D01*
X186250Y270325D02*
X187750Y270325D01*
X187750Y271750D02*
X186250Y271750D01*
X186250Y273175D02*
X187750Y273175D01*
X187750Y274600D02*
X186250Y274600D01*
X191250Y275900D02*
X192750Y275900D01*
X192750Y268900D01*
X191250Y268900D01*
X191250Y275900D01*
X191250Y270325D02*
X192750Y270325D01*
X192750Y271750D02*
X191250Y271750D01*
X191250Y273175D02*
X192750Y273175D01*
X192750Y274600D02*
X191250Y274600D01*
X195500Y278650D02*
X195500Y280150D01*
X202500Y280150D01*
X202500Y278650D01*
X195500Y278650D01*
X195500Y280075D02*
X202500Y280075D01*
X195500Y283650D02*
X195500Y285150D01*
X202500Y285150D01*
X202500Y283650D01*
X195500Y283650D01*
X195500Y285075D02*
X202500Y285075D01*
X195500Y288650D02*
X195500Y290150D01*
X202500Y290150D01*
X202500Y288650D01*
X195500Y288650D01*
X195500Y290075D02*
X202500Y290075D01*
X195500Y293650D02*
X195500Y295150D01*
X202500Y295150D01*
X202500Y293650D01*
X195500Y293650D01*
X195500Y295075D02*
X202500Y295075D01*
X195500Y298650D02*
X195500Y300150D01*
X202500Y300150D01*
X202500Y298650D01*
X195500Y298650D01*
X195500Y300075D02*
X202500Y300075D01*
X195500Y303650D02*
X195500Y305150D01*
X202500Y305150D01*
X202500Y303650D01*
X195500Y303650D01*
X195500Y305075D02*
X202500Y305075D01*
X195500Y308650D02*
X195500Y310150D01*
X202500Y310150D01*
X202500Y308650D01*
X195500Y308650D01*
X195500Y310075D02*
X202500Y310075D01*
X195500Y313650D02*
X195500Y315150D01*
X202500Y315150D01*
X202500Y313650D01*
X195500Y313650D01*
X195500Y315075D02*
X202500Y315075D01*
X192750Y317900D02*
X191250Y317900D01*
X191250Y324900D01*
X192750Y324900D01*
X192750Y317900D01*
X192750Y319325D02*
X191250Y319325D01*
X191250Y320750D02*
X192750Y320750D01*
X192750Y322175D02*
X191250Y322175D01*
X191250Y323600D02*
X192750Y323600D01*
X187750Y317900D02*
X186250Y317900D01*
X186250Y324900D01*
X187750Y324900D01*
X187750Y317900D01*
X187750Y319325D02*
X186250Y319325D01*
X186250Y320750D02*
X187750Y320750D01*
X187750Y322175D02*
X186250Y322175D01*
X186250Y323600D02*
X187750Y323600D01*
X182750Y317900D02*
X181250Y317900D01*
X181250Y324900D01*
X182750Y324900D01*
X182750Y317900D01*
X182750Y319325D02*
X181250Y319325D01*
X181250Y320750D02*
X182750Y320750D01*
X182750Y322175D02*
X181250Y322175D01*
X181250Y323600D02*
X182750Y323600D01*
X177750Y317900D02*
X176250Y317900D01*
X176250Y324900D01*
X177750Y324900D01*
X177750Y317900D01*
X177750Y319325D02*
X176250Y319325D01*
X176250Y320750D02*
X177750Y320750D01*
X177750Y322175D02*
X176250Y322175D01*
X176250Y323600D02*
X177750Y323600D01*
X172750Y317900D02*
X171250Y317900D01*
X171250Y324900D01*
X172750Y324900D01*
X172750Y317900D01*
X172750Y319325D02*
X171250Y319325D01*
X171250Y320750D02*
X172750Y320750D01*
X172750Y322175D02*
X171250Y322175D01*
X171250Y323600D02*
X172750Y323600D01*
X167750Y317900D02*
X166250Y317900D01*
X166250Y324900D01*
X167750Y324900D01*
X167750Y317900D01*
X167750Y319325D02*
X166250Y319325D01*
X166250Y320750D02*
X167750Y320750D01*
X167750Y322175D02*
X166250Y322175D01*
X166250Y323600D02*
X167750Y323600D01*
X162750Y317900D02*
X161250Y317900D01*
X161250Y324900D01*
X162750Y324900D01*
X162750Y317900D01*
X162750Y319325D02*
X161250Y319325D01*
X161250Y320750D02*
X162750Y320750D01*
X162750Y322175D02*
X161250Y322175D01*
X161250Y323600D02*
X162750Y323600D01*
X157750Y317900D02*
X156250Y317900D01*
X156250Y324900D01*
X157750Y324900D01*
X157750Y317900D01*
X157750Y319325D02*
X156250Y319325D01*
X156250Y320750D02*
X157750Y320750D01*
X157750Y322175D02*
X156250Y322175D01*
X156250Y323600D02*
X157750Y323600D01*
D27*
X174500Y296900D03*
D19*
X227000Y108000D03*
X215000Y108000D03*
D28*
G36*
X264213Y113772D02*
X257870Y110813D01*
X254911Y117156D01*
X261254Y120115D01*
X264213Y113772D01*
G37*
G36*
X275089Y118844D02*
X268746Y115885D01*
X265787Y122228D01*
X272130Y125187D01*
X275089Y118844D01*
G37*
D11*
X266500Y201000D03*
X255500Y201000D03*
D12*
X215000Y123000D03*
X215000Y139000D03*
M02*
