M48
;GenerationSoftware,Autodesk,EAGLE,9.6.2*%
;CreationDate,2020-10-08T00:52:17Z*%
FMAT,2
ICI,OFF
METRIC,TZ,000.000
T3C0.300
T2C0.650
T1C1.016
%
G90
M71
T1
X8300Y9100
T2
X24370Y25500
X24370Y24230
X23100Y25500
X23100Y24230
X21830Y25500
X21830Y24230
T3
X19900Y12700
X18000Y13800
X19900Y13800
X18000Y14900
X17000Y14900
X19000Y14900
X19000Y13800
X17700Y5500
X18700Y5600
X18700Y6600
X18000Y7700
X9250Y25690
X10780Y31710
X11490Y31710
X19350Y35415
X23350Y32115
X23350Y30990
X24666Y32629
X21828Y35571
X20350Y35415
X15526Y24095
X23450Y27690
X23450Y29590
X21350Y27790
X25100Y27700
X26200Y27600
X26700Y26800
X26900Y25800
X27600Y24800
X28600Y24200
X29900Y24100
X29700Y25900
X28700Y26200
X28500Y27300
X28000Y28300
X27200Y29100
X26000Y29600
X24700Y29600
X17800Y20000
X11100Y15500
X10100Y15500
X12100Y15500
X9480Y7199
X10398Y8509
X9939Y7854
X8600Y12300
X6700Y11000
X7400Y11000
X6000Y11000
X8800Y13900
X21500Y15100
X23100Y15100
X20000Y36625
X21756Y36529
X23477Y36252
X25156Y35810
X26793Y35184
X28355Y34381
X29817Y33440
X31176Y32341
X31187Y7521
X29829Y6421
X28363Y5468
X26806Y4674
X25175Y4047
X23486Y3594
X21760Y3320
X20015Y3227
X18269Y3318
X16543Y3591
X14854Y4042
X12522Y4968
X10098Y6512
X4124Y24979
X4749Y26711
X5542Y28269
X6493Y29736
X7593Y31094
X8828Y32331
X10186Y33431
X11652Y34384
X13209Y35178
X14840Y35805
X16528Y36259
X18255Y36533
X27160Y13250
X29300Y14600
X25100Y14600
X29300Y18800
X31200Y24100
X31200Y22100
X31200Y20100
X31200Y18100
X31200Y16100
X31200Y14100
X31200Y12100
X31200Y10100
X31200Y25900
X31200Y27900
X31200Y29900
X9200Y19900
X9400Y18300
X7700Y21900
X7400Y19900
X7400Y17900
X9600Y22400
X11200Y22400
X10200Y21400
X20300Y20000
X4500Y14000
X5400Y12000
X3800Y16000
X3400Y18000
X3300Y20000
X3500Y22000
X16200Y7700
X16200Y8500
X14500Y16100
X11000Y18000
X13000Y21000
X15000Y21000
X17000Y21000
X15000Y19000
X17000Y19000
X15000Y17000
X17000Y17000
X19000Y17000
X12000Y20000
X21000Y17000
X29000Y12000
X28000Y23000
X28000Y21000
X30000Y21000
X30000Y23000
X26000Y23000
X30000Y27000
X30000Y29000
X30000Y31000
X28000Y31000
X26000Y31000
X26000Y33000
X28000Y33000
X27800Y12900
X28100Y12200
X18600Y26100
X19600Y24300
X14650Y25990
X14450Y32890
X18575Y34019
X5651Y26050
X22500Y22300
X16775Y22275
X10150Y20070
X5600Y13000
X6300Y13000
X4900Y13000
X18450Y34750
X6500Y28400
X17800Y19000
X7510Y29190
X17150Y34189
X8579Y29968
X14600Y7900
X14200Y6600
X14600Y5400
X13400Y5400
X13400Y6600
X13400Y7900
X13400Y9600
X14000Y8700
X14300Y12400
X13400Y12400
X14300Y13600
X13400Y13600
X14300Y14900
X13400Y14900
X15200Y12400
X13400Y11200
X12700Y14200
X11577Y6707
X11118Y6052
X12036Y7362
X4100Y21000
X4800Y21000
X3400Y21000
X17700Y34700
X4800Y19000
X3400Y19000
X4800Y15000
X5500Y15000
X4100Y15000
X4300Y17000
X5000Y17000
X3600Y17000
X4400Y23000
X3700Y23000
X5100Y23000
X24100Y21100
X22800Y21100
X17100Y7700
X16700Y5500
X18000Y12700
X19000Y12700
X16450Y30690
X17450Y30690
X18450Y30690
X16450Y29690
X17450Y29690
X18450Y29690
X16450Y28690
X17450Y28690
X18450Y28690
X4100Y19000
M30